<svg width="79" height="61" viewBox="0 0 79 61" fill="none" xmlns="http://www.w3.org/2000/svg">
<path d="M65.2037 0C57.9437 0 52.0537 4.09 52.0537 9.14C52.0537 12.37 54.4737 15.22 58.1137 16.84C58.0037 17.09 57.8837 17.35 57.7437 17.61C56.9953 19.0246 56.0303 20.3135 54.8837 21.43C56.8114 21.452 58.7168 21.0168 60.4437 20.16C61.4716 19.64 62.4182 18.973 63.2537 18.18C63.9008 18.2574 64.5521 18.2941 65.2037 18.29C72.4637 18.29 78.3537 14.19 78.3537 9.14005C78.3537 4.09005 72.4637 0 65.2037 0ZM65.9137 10.29L65.7637 10.49C65.6637 10.63 65.5437 10.75 65.4337 10.88C65.4014 10.9119 65.3794 10.9528 65.3705 10.9973C65.3615 11.0419 65.3662 11.0881 65.3837 11.13C65.4656 11.3392 65.5357 11.5529 65.5937 11.77C65.604 11.8184 65.6 11.8687 65.5823 11.9148C65.5645 11.961 65.5338 12.001 65.4937 12.03C65.3937 12.1 65.3137 12.18 65.2137 12.24C65.171 12.2684 65.1213 12.2843 65.0701 12.2861C65.0189 12.2879 64.9682 12.2754 64.9237 12.25C64.7437 12.12 64.5737 11.99 64.4137 11.85C64.3795 11.8178 64.3363 11.7968 64.2899 11.7896C64.2435 11.7825 64.196 11.7896 64.1537 11.81C64.0016 11.8869 63.8446 11.9537 63.6837 12.01C63.6437 12.02 63.6037 12.04 63.5637 12.05L63.4437 12.09L63.1937 12.16C63.1497 12.1697 63.1093 12.1918 63.0774 12.2237C63.0455 12.2556 63.0234 12.296 63.0137 12.34C62.9737 12.56 62.9137 12.77 62.8537 12.99C62.8374 13.0385 62.8066 13.0808 62.7655 13.1112C62.7243 13.1416 62.6748 13.1586 62.6237 13.16C62.5037 13.17 62.3937 13.18 62.2737 13.18C62.2221 13.1814 62.1711 13.168 62.1269 13.1414C62.0826 13.1149 62.0468 13.0762 62.0237 13.03C61.9433 12.8304 61.8732 12.6268 61.8137 12.42C61.7995 12.3758 61.7733 12.3365 61.738 12.3065C61.7026 12.2764 61.6596 12.2569 61.6137 12.25C61.5237 12.24 61.4437 12.23 61.3537 12.22L61.1137 12.16C60.9475 12.1239 60.7839 12.0772 60.6237 12.02C60.5805 12.0065 60.5345 12.0049 60.4904 12.0155C60.4464 12.0261 60.4061 12.0484 60.3737 12.08C60.2137 12.24 60.0537 12.39 59.8837 12.54C59.8421 12.5702 59.7929 12.5881 59.7416 12.5916C59.6903 12.5951 59.6391 12.5842 59.5937 12.56L59.2937 12.39C59.2449 12.3631 59.2062 12.321 59.1837 12.27C59.1618 12.2268 59.1548 12.1776 59.1637 12.13C59.2037 11.91 59.2537 11.7 59.3137 11.49C59.3261 11.4466 59.3251 11.4005 59.3108 11.3576C59.2966 11.3148 59.2697 11.2773 59.2337 11.25L59.0437 11.08L58.9537 10.99L58.8637 10.9L58.6837 10.72C58.6237 10.65 58.5837 10.58 58.5237 10.52C58.4978 10.4822 58.4608 10.4533 58.4179 10.4372C58.375 10.4211 58.3281 10.4186 58.2837 10.43C58.0637 10.48 57.8537 10.52 57.6237 10.55C57.573 10.5528 57.5226 10.5412 57.4783 10.5164C57.4341 10.4916 57.3978 10.4547 57.3737 10.41C57.3137 10.31 57.2637 10.21 57.2137 10.11C57.188 10.0645 57.1771 10.0122 57.1825 9.96021C57.1878 9.90825 57.2092 9.85925 57.2437 9.82C57.3937 9.66 57.5537 9.51 57.7137 9.36C57.7487 9.32983 57.774 9.29002 57.7864 9.24556C57.7989 9.20109 57.7979 9.15394 57.7837 9.11L57.7137 8.87C57.6879 8.78817 57.6678 8.70463 57.6537 8.62C57.615 8.45584 57.5916 8.28846 57.5837 8.12C57.5789 8.07486 57.5613 8.03202 57.533 7.99658C57.5046 7.96113 57.4667 7.93456 57.4237 7.92C57.2037 7.84 57.0137 7.76 56.8037 7.66C56.7587 7.63628 56.7216 7.60005 56.6968 7.55569C56.6719 7.51133 56.6604 7.46074 56.6637 7.41C56.6671 7.29241 56.6805 7.17533 56.7037 7.06C56.7056 7.01019 56.723 6.9622 56.7535 6.92276C56.7839 6.88331 56.826 6.85438 56.8737 6.84C57.0937 6.79 57.3037 6.74 57.5237 6.71C57.5689 6.70438 57.6113 6.68509 57.6453 6.65471C57.6792 6.62433 57.7031 6.58431 57.7137 6.54C57.7537 6.37 57.8137 6.22 57.8637 6.04995C57.9337 5.89995 58.0037 5.73995 58.0737 5.58995C58.0967 5.55189 58.1081 5.5079 58.1063 5.46345C58.1045 5.41899 58.0897 5.37605 58.0637 5.33995C57.9237 5.15995 57.7937 4.96995 57.6737 4.77995C57.65 4.73622 57.6393 4.68664 57.6429 4.63703C57.6464 4.58743 57.664 4.53987 57.6937 4.49995C57.7581 4.40573 57.8282 4.31557 57.9037 4.22995C57.9358 4.18808 57.9793 4.15637 58.029 4.13863C58.0786 4.12089 58.1324 4.11788 58.1837 4.12995C58.3937 4.20995 58.5837 4.27995 58.7837 4.36995C58.8259 4.39106 58.8735 4.39856 58.9201 4.39139C58.9667 4.38422 59.0099 4.36275 59.0437 4.32995C59.1667 4.21497 59.2969 4.10808 59.4337 4.00995C59.5032 3.95756 59.5768 3.91075 59.6537 3.86995L59.8637 3.73C59.9027 3.70871 59.9348 3.67664 59.956 3.63763C59.9773 3.59862 59.9869 3.55432 59.9837 3.51C59.9737 3.29 59.9637 3.06 59.9637 2.83C59.9677 2.78079 59.9859 2.7338 60.0161 2.69475C60.0463 2.65569 60.0871 2.62624 60.1338 2.61C60.2438 2.57 60.3538 2.52 60.4637 2.49C60.5123 2.47514 60.5641 2.47381 60.6134 2.48614C60.6628 2.49848 60.7078 2.52401 60.7437 2.56C60.8737 2.74 61.0037 2.91 61.1237 3.09C61.1498 3.12855 61.186 3.15919 61.2283 3.17859C61.2706 3.19799 61.3175 3.20539 61.3637 3.2C61.5282 3.16468 61.6956 3.14459 61.8637 3.14L61.9937 3.13H62.3737C62.4179 3.13223 62.4618 3.1222 62.5006 3.10102C62.5395 3.07984 62.5717 3.04834 62.5937 3.01C62.7037 2.82 62.8137 2.62 62.9437 2.43C62.9734 2.38832 63.0155 2.35715 63.064 2.34097C63.1126 2.3248 63.165 2.32446 63.2137 2.34L63.5437 2.41C63.5952 2.42256 63.6417 2.45021 63.6774 2.48941C63.713 2.52861 63.7361 2.57757 63.7437 2.63C63.7637 2.85 63.7737 3.06 63.7737 3.28C63.7776 3.32523 63.7936 3.36858 63.82 3.40552C63.8464 3.44246 63.8822 3.47164 63.9237 3.49C64.0786 3.55662 64.229 3.63346 64.3737 3.72L64.5937 3.84C64.6737 3.89 64.7337 3.94 64.8037 3.99C64.8407 4.01827 64.8856 4.0344 64.9321 4.03619C64.9787 4.03798 65.0246 4.02534 65.0637 4C65.2537 3.9 65.4537 3.8 65.6637 3.71C65.7109 3.69026 65.7631 3.68543 65.8131 3.69615C65.8632 3.70688 65.9087 3.73264 65.9437 3.77L66.1837 4.02C66.2219 4.0545 66.2476 4.10074 66.2567 4.15144C66.2657 4.20213 66.2576 4.2544 66.2337 4.3C66.1337 4.5 66.0237 4.69 65.9137 4.87C65.8869 4.90804 65.8725 4.95345 65.8725 5C65.8725 5.04655 65.8869 5.09196 65.9137 5.13L66.0537 5.34L66.1237 5.45C66.1422 5.48579 66.1589 5.5225 66.1737 5.56C66.259 5.7108 66.3325 5.86793 66.3937 6.03C66.4102 6.07199 66.4392 6.10792 66.4767 6.13295C66.5143 6.15798 66.5586 6.17091 66.6037 6.17C66.8237 6.19 67.0437 6.21 67.2637 6.25C67.3137 6.2584 67.3598 6.28218 67.3957 6.31803C67.4315 6.35388 67.4553 6.40001 67.4637 6.45C67.4929 6.56206 67.5162 6.67554 67.5337 6.79C67.5458 6.84085 67.5418 6.89423 67.522 6.94265C67.5023 6.99107 67.4679 7.0321 67.4237 7.06C67.2356 7.16987 67.0421 7.27 66.8437 7.36C66.8041 7.38146 66.7712 7.41326 66.7483 7.45201C66.7254 7.49076 66.7134 7.53499 66.7137 7.58C66.7037 7.75 66.7137 7.92 66.6937 8.09L66.6637 8.34L66.6537 8.47L66.6237 8.59C66.6155 8.63441 66.6196 8.6802 66.6354 8.72248C66.6513 8.76476 66.6783 8.80193 66.7137 8.83C66.8037 8.9 66.8938 8.96 66.9837 9.04C67.0737 9.11 67.1537 9.17995 67.2437 9.25C67.2789 9.28642 67.3025 9.3325 67.3114 9.38238C67.3203 9.43225 67.3141 9.48364 67.2937 9.53C67.2737 9.59 67.2637 9.64 67.2437 9.69L67.1737 9.85C67.1533 9.89772 67.1201 9.93886 67.0777 9.96887C67.0353 9.99887 66.9855 10.0166 66.9337 10.02C66.8237 10.01 66.7237 10.01 66.6137 10C66.5037 9.99 66.3937 9.97 66.2837 9.96C66.2388 9.95361 66.193 9.96064 66.1521 9.98022C66.1112 9.99979 66.0769 10.031 66.0537 10.07L65.9837 10.18L65.9137 10.29ZM72.8637 13.92C72.8105 14.0515 72.7469 14.1785 72.6737 14.3C72.6489 14.3577 72.6065 14.4061 72.5527 14.4384C72.4989 14.4707 72.4363 14.4852 72.3737 14.4801C72.1402 14.4432 71.9096 14.3897 71.6837 14.3201C71.6356 14.301 71.5827 14.2975 71.5325 14.3101C71.4822 14.3226 71.4372 14.3506 71.4037 14.3901L71.2037 14.58L70.9737 14.74L70.7337 14.8901L70.4737 15.01C70.4276 15.0272 70.3873 15.0568 70.3572 15.0957C70.3272 15.1346 70.3086 15.1812 70.3037 15.2301C70.2812 15.4741 70.2343 15.7153 70.1637 15.95C70.1418 16.0072 70.1036 16.0566 70.0538 16.0922C70.004 16.1277 69.9449 16.1479 69.8837 16.15C69.8143 16.1617 69.7441 16.1683 69.6737 16.17L69.4537 16.18C69.3929 16.1819 69.3328 16.167 69.2799 16.137C69.227 16.107 69.1834 16.0631 69.1537 16.01C69.0733 15.7843 69.0065 15.5539 68.9537 15.3201C68.9436 15.2708 68.9193 15.2256 68.8837 15.1901C68.8482 15.1545 68.803 15.1302 68.7537 15.1201C68.6623 15.0946 68.5722 15.0645 68.4837 15.0301C68.3962 15.0037 68.3122 14.9668 68.2337 14.92C68.0625 14.8393 67.9014 14.7386 67.7537 14.6201C67.715 14.5885 67.6679 14.5688 67.6182 14.5635C67.5685 14.5582 67.5183 14.5674 67.4737 14.59C67.2512 14.6875 67.0202 14.7645 66.7837 14.8201C66.7276 14.8365 66.6675 14.833 66.6137 14.81C66.5578 14.7778 66.51 14.7334 66.4737 14.68C66.4249 14.6278 66.3814 14.5708 66.3437 14.51L66.2337 14.33C66.1969 14.2791 66.1771 14.2179 66.1771 14.1551C66.1771 14.0922 66.1969 14.031 66.2337 13.9801C66.3806 13.7951 66.5411 13.6213 66.7137 13.4601C66.7523 13.428 66.7805 13.3853 66.7947 13.3372C66.809 13.2891 66.8086 13.2379 66.7937 13.1901C66.7189 12.9201 66.6886 12.6398 66.7037 12.3601C66.7001 12.2663 66.7068 12.1724 66.7237 12.08C66.7319 12.0292 66.725 11.977 66.7037 11.93C66.6825 11.887 66.6517 11.8493 66.6137 11.82C66.4164 11.6731 66.2323 11.5092 66.0637 11.33C66.0267 11.2824 66.0033 11.2256 65.9963 11.1656C65.9892 11.1057 65.9987 11.045 66.0237 10.99C66.0838 10.86 66.1438 10.7301 66.2137 10.6101C66.2422 10.5552 66.2853 10.5094 66.3382 10.4776C66.3912 10.4458 66.4519 10.4293 66.5137 10.43C66.7517 10.4654 66.986 10.5223 67.2137 10.6C67.2609 10.6136 67.3108 10.6143 67.3583 10.602C67.4058 10.5896 67.4491 10.5648 67.4837 10.53L67.6937 10.34L67.9137 10.17L68.1537 10.03L68.4137 9.91C68.4603 9.89074 68.5007 9.85914 68.5307 9.81862C68.5606 9.77809 68.579 9.73017 68.5837 9.68C68.6168 9.43756 68.6635 9.19718 68.7237 8.96C68.7485 8.90489 68.7875 8.85735 68.8367 8.82222C68.8859 8.78709 68.9435 8.76562 69.0037 8.76C69.0767 8.75144 69.1502 8.7481 69.2237 8.75L69.4337 8.74C69.4948 8.73606 69.5557 8.75004 69.609 8.78024C69.6623 8.81044 69.7056 8.85554 69.7337 8.91C69.8232 9.1293 69.8902 9.35714 69.9337 9.59C69.9466 9.64042 69.9745 9.68574 70.0137 9.72C70.0422 9.76075 70.0851 9.78929 70.1337 9.8C70.2253 9.8207 70.3155 9.84742 70.4037 9.88C70.4937 9.91 70.5737 9.95 70.6637 9.99C70.8317 10.0709 70.9895 10.1716 71.1337 10.29C71.1728 10.3205 71.2192 10.3403 71.2683 10.3473C71.3175 10.3543 71.3676 10.3483 71.4137 10.33C71.6393 10.2292 71.8736 10.1489 72.1137 10.09C72.1676 10.0767 72.2246 10.0838 72.2737 10.11C72.3339 10.1351 72.3859 10.1767 72.4237 10.23C72.4637 10.29 72.5037 10.34 72.5437 10.4L72.6537 10.59C72.6893 10.6391 72.7094 10.6978 72.7111 10.7585C72.7129 10.8191 72.6964 10.8789 72.6637 10.93C72.5161 11.1175 72.3521 11.2916 72.1737 11.45C72.1369 11.4855 72.1101 11.5301 72.096 11.5792C72.082 11.6284 72.0812 11.6804 72.0937 11.73C72.1439 11.9094 72.1741 12.0939 72.1837 12.28C72.1972 12.3727 72.2005 12.4666 72.1937 12.56C72.1837 12.65 72.1837 12.74 72.1637 12.84C72.1597 12.8876 72.1666 12.9354 72.1837 12.98C72.2019 13.0276 72.2331 13.0692 72.2737 13.1C72.4741 13.2432 72.6615 13.4038 72.8337 13.58C72.8713 13.6276 72.8942 13.6851 72.8996 13.7455C72.9049 13.8059 72.8924 13.8666 72.8637 13.92Z" fill="black"/>
<path d="M70.7738 12.1913C70.7538 12.1413 70.7437 12.0813 70.7237 12.0213C70.6846 11.9112 70.6307 11.807 70.5638 11.7113C70.4981 11.6125 70.4209 11.5218 70.3337 11.4413C70.289 11.4022 70.2423 11.3655 70.1937 11.3313C70.1684 11.3218 70.1448 11.3083 70.1237 11.2913C70.0992 11.274 70.0723 11.2605 70.0437 11.2513C70.0137 11.2413 69.9938 11.2213 69.9638 11.2113L69.8838 11.1813L69.8337 11.1713C69.8237 11.1613 69.8137 11.1613 69.7937 11.1513C69.7659 11.1506 69.7386 11.1438 69.7138 11.1313C69.6834 11.1329 69.653 11.1295 69.6237 11.1213C69.6065 11.1228 69.5891 11.1194 69.5737 11.1113H69.3538C69.3238 11.1113 69.2938 11.1213 69.2738 11.1213C69.2445 11.1295 69.2141 11.1329 69.1837 11.1313C69.1237 11.1513 69.0637 11.1613 69.0137 11.1813C68.9026 11.221 68.7954 11.2713 68.6937 11.3313C68.6002 11.4034 68.5132 11.4838 68.4337 11.5713C68.3947 11.616 68.358 11.6627 68.3237 11.7113C68.3037 11.7313 68.2938 11.7613 68.2738 11.7813C68.2638 11.8113 68.2437 11.8313 68.2337 11.8613C68.2237 11.8913 68.2138 11.9113 68.2038 11.9413L68.1738 12.0213L68.1537 12.0713C68.1537 12.0813 68.1437 12.0913 68.1437 12.1113C68.1337 12.1413 68.1337 12.1713 68.1237 12.1913C68.1155 12.2205 68.1121 12.2509 68.1137 12.2813C68.1057 12.2966 68.1022 12.314 68.1038 12.3313V12.3713L68.0938 12.4613C68.0938 12.4913 68.1038 12.5213 68.1038 12.5513C68.1015 12.5783 68.1049 12.6056 68.1137 12.6313C68.1121 12.6616 68.1155 12.692 68.1237 12.7213C68.1344 12.7795 68.1512 12.8365 68.1738 12.8913C68.2093 13.0041 68.2598 13.1117 68.3237 13.2113C68.3896 13.307 68.4668 13.3943 68.5537 13.4713C68.5937 13.5113 68.6537 13.5413 68.6937 13.5813C68.7182 13.5986 68.7452 13.6121 68.7738 13.6213C68.7965 13.6436 68.8238 13.6606 68.8538 13.6713C68.8798 13.6829 68.9065 13.6929 68.9337 13.7013L69.0137 13.7313L69.0537 13.7513C69.0637 13.7513 69.0838 13.7613 69.0938 13.7613C69.1237 13.7713 69.1537 13.7713 69.1837 13.7813C69.2137 13.7813 69.2438 13.7913 69.2738 13.7913C69.2855 13.7992 69.2997 13.8027 69.3138 13.8012H69.3637L69.4437 13.8112C69.473 13.803 69.5034 13.7996 69.5338 13.8012C69.5938 13.7946 69.6538 13.7879 69.7138 13.7812C69.7713 13.7678 69.8281 13.7511 69.8838 13.7312C69.9935 13.6955 70.0978 13.6451 70.1938 13.5812C70.2952 13.515 70.3862 13.4341 70.4638 13.3412C70.5002 13.3004 70.5336 13.2569 70.5638 13.2112C70.5838 13.1812 70.5938 13.1612 70.6138 13.1312C70.633 13.1079 70.6467 13.0806 70.6538 13.0512C70.6691 13.0256 70.6825 12.9989 70.6938 12.9712L70.7238 12.8912L70.7338 12.8512C70.7408 12.8391 70.7442 12.8252 70.7438 12.8112L70.7738 12.7212C70.7722 12.6909 70.7755 12.6605 70.7838 12.6312C70.7823 12.6171 70.7858 12.603 70.7938 12.5912V12.3712C70.7938 12.3412 70.7838 12.3112 70.7838 12.2812C70.7755 12.252 70.7721 12.2216 70.7738 12.1913Z" fill="black"/>
<path d="M64.0838 5.79987C63.9055 5.61319 63.6998 5.45472 63.4738 5.32987L63.3838 5.27987C63.3592 5.26261 63.3323 5.24912 63.3038 5.23987L63.1238 5.15987L62.9338 5.09987L62.8438 5.06987L62.7438 5.04987C62.4923 4.98659 62.2325 4.96299 61.9738 4.97992C61.4513 5.01435 60.949 5.19449 60.5238 5.49992L60.3738 5.61992L60.2338 5.74992C60.1838 5.79992 60.1438 5.84992 60.0938 5.89992C60.0509 5.94407 60.0108 5.99082 59.9738 6.03992C59.8184 6.24931 59.6907 6.47786 59.5938 6.71992C59.4998 6.96398 59.4392 7.21963 59.4138 7.47992C59.4088 7.54315 59.4088 7.60669 59.4138 7.66992C59.4037 7.73621 59.4037 7.80363 59.4138 7.86992L59.4338 8.05992L59.4638 8.24992C59.5726 8.76141 59.8219 9.23241 60.1838 9.60992C60.3657 9.79679 60.5747 9.95522 60.8038 10.0799L60.8838 10.1299C60.9118 10.1474 60.9421 10.1608 60.9738 10.1699L61.1538 10.2499L61.3338 10.3099C61.3738 10.3199 61.4038 10.3299 61.4338 10.3399L61.5238 10.3599C61.7753 10.4228 62.035 10.4463 62.2938 10.4299C62.5533 10.4124 62.8092 10.3585 63.0538 10.2699C63.5492 10.098 63.9836 9.78519 64.3038 9.36987C64.4592 9.1605 64.5869 8.93194 64.6838 8.68987C64.7699 8.44404 64.827 8.18897 64.8538 7.92987C64.8966 7.41048 64.789 6.88973 64.5438 6.42987C64.4262 6.19597 64.2708 5.9831 64.0838 5.79987Z" fill="black"/>
<path d="M63.9666 56.0952L63.9678 56.0893C64.0102 55.7598 64.0149 55.4265 63.9819 55.0959L63.9809 55.0899C64.2016 54.9165 64.3603 54.6762 64.4331 54.405C64.506 54.1338 64.489 53.8464 64.3848 53.5856C64.2807 53.3249 64.0949 53.1049 63.8552 52.9586C63.6156 52.8122 63.335 52.7475 63.0555 52.7739L63.0517 52.7683C62.8478 52.506 62.6147 52.2677 62.3569 52.0582L62.3523 52.0549C62.3862 51.7758 62.3287 51.4934 62.1885 51.2498C62.0482 51.0062 61.8328 50.8146 61.5745 50.7038C61.3162 50.5929 61.029 50.5688 60.7558 50.635C60.4826 50.7012 60.2383 50.8542 60.0594 51.071L60.0527 51.0698C59.7232 51.0273 59.39 51.0226 59.0594 51.0556L59.0532 51.0567C58.8796 50.836 58.6391 50.6774 58.3678 50.6048C58.0965 50.5321 57.809 50.5493 57.5482 50.6538C57.2875 50.7582 57.0677 50.9443 56.9216 51.1842C56.7755 51.4241 56.711 51.7049 56.7378 51.9844L56.7326 51.988C56.4705 52.1913 56.2325 52.4239 56.0231 52.6813L56.0198 52.686C55.7406 52.6519 55.4579 52.7092 55.214 52.8495C54.9702 52.9897 54.7785 53.2053 54.6676 53.4638C54.5567 53.7223 54.5327 54.0098 54.5991 54.2831C54.6655 54.5564 54.8187 54.8008 55.0359 54.9796L55.0347 54.9854C54.9925 55.3145 54.988 55.6472 55.0213 55.9773L55.0224 55.9835C54.8013 56.1567 54.6424 56.3969 54.5692 56.668C54.4961 56.9392 54.5128 57.2268 54.6168 57.4876C54.7208 57.7485 54.9064 57.9687 55.146 58.1152C55.3856 58.2618 55.6662 58.3268 55.9458 58.3005L55.9494 58.3058C56.1532 58.5681 56.3863 58.8063 56.6441 59.0158L56.6497 59.0198C56.6159 59.2988 56.6734 59.5812 56.8137 59.8248C56.954 60.0683 57.1694 60.2598 57.4277 60.3706C57.686 60.4813 57.9733 60.5054 58.2464 60.4392C58.5195 60.3729 58.7638 60.2199 58.9427 60.0031L58.9483 60.0042C59.2778 60.0466 59.6111 60.0513 59.9416 60.0182L59.9484 60.0171C60.1219 60.2379 60.3622 60.3965 60.6334 60.4693C60.9046 60.5421 61.192 60.5251 61.4527 60.4209C61.7134 60.3167 61.9334 60.1308 62.0797 59.8912C62.226 59.6516 62.2907 59.371 62.2643 59.0915L62.2693 59.0881C62.5316 58.8842 62.7698 58.6511 62.9794 58.3933L62.9829 58.3883C63.262 58.4222 63.5446 58.3648 63.7883 58.2245C64.0319 58.0843 64.2235 57.8688 64.3344 57.6104C64.4452 57.352 64.4693 57.0647 64.403 56.7915C64.3367 56.5182 64.1836 56.274 63.9666 56.0952ZM58.9129 56.9068C58.642 56.7906 58.4117 56.5966 58.251 56.3495C58.0903 56.1023 58.0065 55.8131 58.0102 55.5183C58.0139 55.2236 58.1049 54.9365 58.2718 54.6935C58.4386 54.4505 58.6738 54.2624 58.9475 54.153C59.2212 54.0436 59.5212 54.0179 59.8096 54.079C60.098 54.1401 60.3618 54.2854 60.5676 54.4964C60.7734 54.7075 60.912 54.9748 60.9659 55.2646C61.0198 55.5544 60.9865 55.8537 60.8703 56.1246C60.7143 56.4878 60.4205 56.7742 60.0535 56.9208C59.6865 57.0675 59.2762 57.0624 58.9129 56.9068Z" fill="black"/>
<path d="M9.57222 57.322L9.573 57.318C9.60159 57.0958 9.60477 56.8711 9.58249 56.6481L9.58179 56.6442C9.73067 56.5272 9.83768 56.3651 9.88679 56.1823C9.9359 55.9994 9.92448 55.8056 9.85423 55.6297C9.78398 55.4539 9.65868 55.3056 9.49709 55.2069C9.33549 55.1082 9.14629 55.0645 8.95779 55.0823L8.95526 55.0786C8.81779 54.9017 8.66061 54.7411 8.48675 54.5998L8.48362 54.5975C8.50644 54.4094 8.46767 54.2189 8.37311 54.0547C8.27855 53.8904 8.1333 53.7613 7.95914 53.6865C7.78497 53.6118 7.59127 53.5955 7.40708 53.6402C7.22289 53.6848 7.05813 53.788 6.93751 53.9341L6.933 53.9333C6.71081 53.9047 6.48608 53.9015 6.26317 53.9238L6.25899 53.9245C6.1419 53.7756 5.97974 53.6687 5.79678 53.6197C5.61383 53.5707 5.41993 53.5823 5.24412 53.6527C5.06831 53.7232 4.92005 53.8487 4.82154 54.0104C4.72303 54.1722 4.67957 54.3615 4.69767 54.5501L4.69413 54.5524C4.51741 54.6895 4.35692 54.8464 4.21576 55.0199L4.21348 55.0231C4.02521 55.0001 3.83455 55.0388 3.67013 55.1334C3.50572 55.2279 3.37641 55.3733 3.30163 55.5476C3.22686 55.7219 3.21064 55.9158 3.25542 56.1001C3.3002 56.2844 3.40357 56.4492 3.54999 56.5697L3.54924 56.5737C3.52078 56.7956 3.51774 57.02 3.54017 57.2426L3.54087 57.2467C3.39181 57.3636 3.28461 57.5255 3.2353 57.7084C3.186 57.8912 3.19725 58.0851 3.26736 58.2611C3.33748 58.437 3.4627 58.5855 3.62426 58.6843C3.78583 58.7831 3.97506 58.8269 4.16361 58.8092L4.16599 58.8127C4.30345 58.9896 4.46063 59.1502 4.63449 59.2915L4.63825 59.2942C4.61547 59.4824 4.65429 59.6728 4.74888 59.837C4.84348 60.0013 4.98875 60.1304 5.16292 60.2051C5.33709 60.2798 5.53078 60.296 5.71496 60.2513C5.89913 60.2067 6.06386 60.1035 6.18446 59.9573L6.18825 59.9581C6.41044 59.9866 6.63516 59.9898 6.85807 59.9676L6.86266 59.9668C6.97965 60.1156 7.14171 60.2226 7.32457 60.2717C7.50743 60.3208 7.70127 60.3093 7.87707 60.239C8.05288 60.1687 8.2012 60.0434 8.29985 59.8818C8.3985 59.7202 8.44216 59.531 8.42431 59.3425L8.42766 59.3403C8.60454 59.2029 8.76519 59.0457 8.90649 58.8718L8.90889 58.8684C9.09709 58.8913 9.28764 58.8525 9.45195 58.758C9.61627 58.6634 9.74548 58.5181 9.82022 58.3439C9.89496 58.1696 9.91119 57.9759 9.86648 57.7916C9.82177 57.6074 9.71851 57.4426 9.57222 57.322ZM6.16439 57.8693C5.98171 57.7909 5.82637 57.6601 5.71801 57.4935C5.60966 57.3268 5.55316 57.1318 5.55565 56.933C5.55814 56.7343 5.61951 56.5407 5.73201 56.3768C5.84451 56.2129 6.00307 56.0861 6.18766 56.0123C6.37225 55.9386 6.57456 55.9212 6.76902 55.9624C6.96348 56.0036 7.14135 56.1016 7.28013 56.2439C7.41892 56.3862 7.51239 56.5665 7.54873 56.7619C7.58507 56.9573 7.56264 57.1591 7.48428 57.3418C7.37909 57.5867 7.18099 57.7798 6.9335 57.8787C6.68601 57.9776 6.40937 57.9742 6.16439 57.8693Z" fill="black"/>
<path d="M55.2492 32.9815C53.4854 32.9652 51.7299 32.7372 50.0205 32.3022C49.9155 32.2768 49.8165 32.2309 49.7293 32.1672C49.6421 32.1035 49.5683 32.0233 49.5122 31.931C49.456 31.8387 49.4187 31.7363 49.4022 31.6296C49.3857 31.5228 49.3905 31.4139 49.4162 31.309C49.4419 31.2041 49.488 31.1053 49.552 31.0183C49.616 30.9312 49.6965 30.8577 49.7889 30.8018C49.8814 30.746 49.9839 30.7089 50.0907 30.6928C50.1975 30.6767 50.3064 30.6818 50.4112 30.7078C54.22 31.6404 61.1277 32.3218 64.5946 26.3884C64.7048 26.2014 64.8847 26.0656 65.0948 26.0109C65.305 25.9561 65.5282 25.9869 65.7157 26.0964C65.9032 26.2059 66.0397 26.3853 66.0953 26.5952C66.1508 26.8051 66.1209 27.0285 66.0122 27.2164C63.7938 31.0132 60.0602 32.9815 55.2492 32.9815Z" fill="black"/>
<path d="M64.3297 27.2944C63.5925 26.8172 63.0298 26.1139 62.7261 25.2898C62.4836 24.6869 62.1565 23.6051 62.7972 23.4552C63.4288 23.3074 63.5788 23.7813 63.882 24.2785C63.977 24.4737 64.1197 24.6419 64.2968 24.7675C64.4739 24.8931 64.6798 24.9721 64.8955 24.9972C65.1134 25.019 65.4152 24.609 65.5657 24.2791C65.8623 23.6289 66.797 24.3623 67.5311 24.949C68.2652 25.5356 68.8847 26.296 68.3483 26.8869C67.827 27.4948 67.0888 27.8749 66.2911 27.9461C65.5797 27.9752 64.8822 27.7435 64.3297 27.2944Z" fill="black"/>
<path d="M65.5095 25.46C64.7515 25.1608 65.7604 24.3183 65.8225 23.3554C65.8563 22.8312 65.7336 21.7912 66.4677 21.7115C67.2017 21.6318 67.3113 22.6265 67.2335 23.2964C67.1557 23.9662 66.5366 25.8652 65.5095 25.46Z" fill="black"/>
<path d="M66.891 25.7942C66.1547 25.3869 67.2169 24.1851 67.4395 23.7002C67.662 23.2154 67.9194 22.0693 68.612 22.2998C69.3047 22.5302 69.0276 23.4024 68.7969 24.0097C68.5662 24.617 67.8092 26.3022 66.891 25.7942Z" fill="black"/>
<path d="M66.9053 27.6449C66.4968 27.2928 67.5278 26.13 67.7569 25.8334C67.9861 25.5369 68.3129 25.2256 68.5229 24.927C68.7126 24.6286 68.9228 24.3438 69.152 24.0746C69.3851 23.8274 69.6766 23.6319 69.9813 23.8285C70.2859 24.0251 70.2131 24.343 70.0971 24.6532C69.9795 24.9495 69.8235 25.2292 69.6333 25.485C69.3837 25.8594 69.0979 26.2082 68.7801 26.5266C68.4619 26.8309 67.3137 27.9969 66.9053 27.6449Z" fill="black"/>
<path d="M19.4025 9.17412C19.9635 9.17412 20.4183 8.71934 20.4183 8.15835C20.4183 7.59735 19.9635 7.14258 19.4025 7.14258C18.8415 7.14258 18.3867 7.59735 18.3867 8.15835C18.3867 8.71934 18.8415 9.17412 19.4025 9.17412Z" fill="black"/>
<path d="M21.9294 8.38847C21.8594 8.3884 21.7921 8.3608 21.7422 8.31162C21.6923 8.26243 21.6638 8.1956 21.6627 8.12555C21.6544 7.60375 21.4667 7.10072 21.131 6.70111C21.086 6.64695 21.0642 6.57715 21.0704 6.50696C21.0766 6.43677 21.1103 6.37188 21.1642 6.32647C21.2181 6.28105 21.2877 6.2588 21.358 6.26457C21.4282 6.27033 21.4933 6.30364 21.539 6.35724C21.9538 6.8511 22.1858 7.4727 22.1962 8.11753C22.1972 8.18827 22.1701 8.25652 22.1208 8.30731C22.0716 8.3581 22.0042 8.38728 21.9334 8.38847H21.9294Z" fill="black"/>
<path d="M17.3902 9.95546C17.349 9.95549 17.3084 9.94598 17.2715 9.9277C17.2346 9.90941 17.2025 9.88283 17.1776 9.85005C16.762 9.30367 16.5621 8.6234 16.6161 7.93905C16.6232 7.86915 16.657 7.80467 16.7104 7.759C16.7638 7.71333 16.8327 7.68996 16.9028 7.69376C16.9734 7.69935 17.0388 7.73272 17.0848 7.78653C17.1307 7.84035 17.1535 7.91021 17.1479 7.98076C17.1044 8.53451 17.2661 9.08493 17.6024 9.52703C17.6324 9.56661 17.6508 9.61377 17.6555 9.66322C17.6602 9.71267 17.651 9.76244 17.629 9.80695C17.6069 9.85146 17.5729 9.88894 17.5307 9.91518C17.4885 9.94142 17.4399 9.95535 17.3902 9.95546Z" fill="black"/>
<path d="M20.9903 13.3329C20.9339 13.3329 20.8789 13.315 20.8333 13.2818C20.7877 13.2486 20.7538 13.2018 20.7364 13.1482L19.1484 8.23883C19.1269 8.17156 19.1329 8.09851 19.1652 8.03567C19.1974 7.97283 19.2533 7.92533 19.3204 7.90359C19.3876 7.88184 19.4607 7.88762 19.5237 7.91966C19.5866 7.95169 19.6343 8.00738 19.6562 8.0745L21.2442 12.9838C21.257 13.0239 21.2602 13.0664 21.2535 13.1079C21.2468 13.1494 21.2305 13.1887 21.2057 13.2227C21.181 13.2568 21.1486 13.2844 21.1112 13.3036C21.0737 13.3227 21.0323 13.3328 20.9903 13.3329Z" fill="black"/>
<path d="M45.6148 57.3976C45.3971 57.3976 45.1883 57.3111 45.0344 57.1572C44.8804 57.0033 44.794 56.7945 44.7939 56.5768V45.3482C44.7939 45.1305 44.8804 44.9217 45.0344 44.7678C45.1883 44.6138 45.3971 44.5273 45.6148 44.5273C45.8325 44.5273 46.0413 44.6138 46.1952 44.7678C46.3491 44.9217 46.4356 45.1305 46.4356 45.3482V56.5768C46.4356 56.7945 46.3491 57.0033 46.1952 57.1572C46.0412 57.3111 45.8325 57.3976 45.6148 57.3976Z" fill="black"/>
<path d="M44.7474 56.3131C44.4515 56.3758 44.1856 56.5371 43.9932 56.7705C43.8007 57.0039 43.6932 57.2957 43.688 57.5982C43.5649 58.7556 43.6141 59.839 43.9343 60.0237C44.2544 60.2084 45.1901 60.1592 47.234 60.1592H51.1001C51.5573 60.1592 51.7523 59.1126 51.2971 58.2045C50.6353 56.8841 48.8839 56.7609 48.1082 56.724C47.3325 56.6871 47.8496 55.7883 47.2956 55.6036C47.1869 55.5582 47.0702 55.5349 46.9524 55.5352C46.8346 55.5354 46.718 55.5592 46.6096 55.6051C46.432 55.7217 46.4339 55.9725 46.4337 56.2192C46.4333 56.6423 44.9931 56.9456 44.7474 56.3131Z" fill="black"/>
<path d="M22.8159 57.3966C22.5982 57.3966 22.3895 57.3101 22.2355 57.1562C22.0816 57.0022 21.9951 56.7935 21.9951 56.5758V45.3471C21.9947 45.2391 22.0157 45.1321 22.0568 45.0321C22.0979 44.9322 22.1583 44.8414 22.2345 44.7649C22.3108 44.6883 22.4014 44.6276 22.5012 44.5862C22.6009 44.5448 22.7079 44.5234 22.8159 44.5234C22.924 44.5234 23.031 44.5448 23.1307 44.5862C23.2305 44.6276 23.3211 44.6883 23.3974 44.7649C23.4736 44.8414 23.534 44.9322 23.5751 45.0321C23.6162 45.1321 23.6372 45.2391 23.6368 45.3471V56.5758C23.6368 56.7935 23.5503 57.0022 23.3963 57.1562C23.2424 57.3101 23.0336 57.3966 22.8159 57.3966Z" fill="black"/>
<path d="M23.6836 56.3131C23.9796 56.3758 24.2455 56.5371 24.4379 56.7705C24.6303 57.0039 24.7379 57.2957 24.7431 57.5982C24.8662 58.7556 24.8169 59.839 24.4968 60.0237C24.1767 60.2084 23.2409 60.1592 21.1971 60.1592H17.331C16.8738 60.1592 16.6788 59.1126 17.134 58.2045C17.7958 56.8841 19.5472 56.7609 20.3229 56.724C21.0986 56.6871 20.5815 55.7883 21.1355 55.6036C21.2442 55.5582 21.3609 55.5349 21.4787 55.5352C21.5965 55.5354 21.713 55.5592 21.8215 55.6051C21.9991 55.7217 21.9972 55.9725 21.9974 56.2192C21.9978 56.6423 23.4379 56.9456 23.6836 56.3131Z" fill="black"/>
<path d="M9.40414 44.2696C9.20037 44.2693 9.00398 44.1932 8.85317 44.0562C8.70236 43.9192 8.60789 43.7309 8.58814 43.5281C8.08134 38.3054 11.3133 31.6205 16.7613 30.3785C16.8666 30.3542 16.9756 30.3509 17.0821 30.3688C17.1886 30.3867 17.2905 30.4254 17.382 30.4828C17.4735 30.5402 17.5528 30.615 17.6153 30.7031C17.6779 30.7911 17.7224 30.8907 17.7464 30.996C17.7704 31.1013 17.7734 31.2103 17.7551 31.3167C17.7369 31.4232 17.6979 31.525 17.6403 31.6163C17.5827 31.7077 17.5076 31.7867 17.4193 31.849C17.3311 31.9113 17.2314 31.9555 17.1261 31.9792C12.6414 33.0012 9.78231 38.836 10.2222 43.3694C10.2326 43.4767 10.2218 43.585 10.1903 43.6881C10.1589 43.7912 10.1075 43.8871 10.039 43.9703C9.97046 44.0535 9.88624 44.1224 9.79111 44.1731C9.69598 44.2237 9.5918 44.2552 9.48452 44.2656C9.45781 44.2683 9.43098 44.2696 9.40414 44.2696Z" fill="black"/>
<path d="M33.4373 42.945L19.0576 42.3262C19.2341 43.2464 19.6849 44.0917 20.3507 44.751C21.0166 45.4103 21.8664 45.8526 22.7883 46.0199C26.3219 46.6089 29.9012 46.8793 33.4832 46.8279C37.3024 46.8545 41.1179 46.5844 44.8952 46.0199C45.8172 45.8526 46.667 45.4103 47.3328 44.751C47.9987 44.0917 48.4495 43.2464 48.6259 42.3262L33.4373 42.945Z" fill="black"/>
<path d="M51.497 30.8926C50.9608 28.4302 47.3545 28.3809 47.3545 28.3809H19.6115C19.6115 28.3809 16.0051 28.4302 15.4689 30.8926C14.9328 33.3551 14.7374 39.8068 18.0029 42.6271C20.1788 44.5063 28.9784 44.8318 33.4829 44.7882C35.8229 44.8108 46.7629 44.5273 48.963 42.6271C52.2285 39.8068 52.0332 33.3551 51.497 30.8926Z" fill="black"/>
<path d="M52.6296 18.0601C52.5756 11.0002 38.4249 9.75982 33.627 9.71692V9.71484C33.5858 9.71484 33.5377 9.71576 33.4948 9.71594C33.4518 9.71576 33.4037 9.71484 33.3625 9.71484V9.71692C28.5646 9.75982 14.4141 11.0002 14.36 18.0601C14.3051 25.2512 14.8552 28.5361 18.3207 29.2463C21.6949 29.9377 29.9951 29.956 33.3625 29.9565H33.627C36.9944 29.956 45.2946 29.9377 48.6688 29.2463C52.1345 28.5361 52.6846 25.2511 52.6296 18.0601ZM47.3236 25.4008C44.3027 25.7845 36.8717 25.7946 33.8567 25.7949H33.6199C30.605 25.7946 23.1739 25.7845 20.153 25.4008C17.0503 25.0068 16.5578 23.1846 16.607 19.1954C16.6554 15.279 29.3244 14.5909 33.6199 14.5671V14.566C33.6569 14.566 33.6999 14.5665 33.7383 14.5665C33.7767 14.5665 33.8198 14.566 33.8567 14.566V14.5671C38.1522 14.5909 50.8212 15.279 50.8696 19.1954C50.9188 23.1846 50.4264 25.0068 47.3236 25.4008Z" fill="black"/>
<path d="M31.9797 23.4743C31.915 23.4742 31.8512 23.4588 31.7936 23.4295C31.7359 23.4001 31.6861 23.3575 31.648 23.3052C31.6099 23.2529 31.5847 23.1923 31.5745 23.1285C31.5643 23.0646 31.5693 22.9992 31.5891 22.9376C31.7067 22.5379 31.9605 22.1919 32.3064 21.9596C32.6523 21.7272 33.0685 21.6232 33.4831 21.6655C33.8525 21.6435 34.2202 21.7302 34.5409 21.915C34.8615 22.0998 35.1209 22.3745 35.2871 22.7051C35.3349 22.8027 35.3421 22.9152 35.3072 23.018C35.2722 23.1209 35.1979 23.2056 35.1005 23.2538C35.0031 23.302 34.8906 23.3095 34.7877 23.2749C34.6847 23.2403 34.5997 23.1663 34.5512 23.0691C34.4532 22.8751 34.2986 22.7155 34.1079 22.6115C33.9171 22.5074 33.6992 22.4637 33.4831 22.4863C32.705 22.4863 32.4883 22.8246 32.3703 23.1901C32.3435 23.2726 32.2913 23.3446 32.2211 23.3956C32.151 23.4467 32.0664 23.4742 31.9797 23.4743Z" fill="black"/>
<path d="M13.5821 52.3768C12.947 52.0904 12.4172 51.613 12.0664 51.0111C11.7157 50.4092 11.5615 49.7128 11.6255 49.0191C11.6352 48.92 11.6479 48.8249 11.6645 48.7268C11.7139 48.4612 11.7949 48.2026 11.9056 47.9562C12.0551 47.6233 12.2584 47.3173 12.5074 47.0505L12.5151 47.0446C12.991 46.5365 13.6139 46.1898 14.2965 46.0532C14.9792 45.9166 15.6875 45.9968 16.3223 46.2827C16.8972 46.5381 17.3869 46.9528 17.7337 47.4778L17.2237 48.6034L15.4902 47.8255L13.7463 48.7865L14.1823 50.7303L15.9157 51.5082L15.4087 52.6377C14.7874 52.7254 14.154 52.6349 13.5821 52.3768Z" fill="black"/>
<path d="M12.8451 47.2358L12.5069 47.0489C12.2579 47.3157 12.0546 47.6217 11.9051 47.9546C11.7943 48.201 11.7134 48.4597 11.6639 48.7252L12.1029 48.8841L12.8451 47.2358ZM9.27122 45.42L7.65966 44.6099L7.63388 44.5961L6.10617 43.8318L5.98633 43.7708L5.07848 43.3141L4.80948 43.1779L1.90967 41.8085C1.7536 41.7232 1.58158 41.6711 1.40441 41.6554C1.22724 41.6397 1.04875 41.6609 0.880122 41.7174C0.711499 41.774 0.556389 41.8648 0.424525 41.9842C0.292662 42.1035 0.186891 42.2489 0.113851 42.411C0.0408105 42.5732 0.00207703 42.7487 8.12631e-05 42.9266C-0.0019145 43.1044 0.0328705 43.2808 0.102253 43.4445C0.171636 43.6083 0.274119 43.756 0.403271 43.8783C0.532423 44.0005 0.685456 44.0948 0.852767 44.1552L5.17598 46.0328L6.35277 46.5219L6.68047 46.659L8.14947 47.2667C8.21085 47.0397 8.25598 46.8311 8.29547 46.6911C8.45936 46.111 8.83382 45.379 9.27122 45.42ZM1.15422 43.4604C1.05925 43.4174 0.979133 43.3473 0.92397 43.2588C0.868808 43.1704 0.841065 43.0675 0.84424 42.9633C0.847415 42.8591 0.881365 42.7582 0.941811 42.6733C1.00226 42.5883 1.08649 42.5232 1.18391 42.486C1.28132 42.4489 1.38755 42.4414 1.4892 42.4645C1.59086 42.4877 1.68339 42.5404 1.75514 42.616C1.82689 42.6916 1.87465 42.7868 1.89239 42.8895C1.91013 42.9923 1.89707 43.098 1.85485 43.1933C1.79735 43.3216 1.69124 43.4218 1.55986 43.4719C1.42848 43.522 1.28255 43.5179 1.15422 43.4604Z" fill="black"/>
<path d="M11.6638 48.7267L11.6341 48.7158L9.92948 48.0075L8.92304 47.5895L8.14941 47.2683C8.21079 47.0412 8.25592 46.8327 8.29541 46.6927C8.4593 46.1125 8.83376 45.3805 9.27116 45.4216L9.57616 45.573L11.1389 46.3593L12.4069 46.9955L12.5068 47.0504C12.2578 47.3172 12.0545 47.6232 11.905 47.9562C11.7943 48.2025 11.7133 48.4612 11.6638 48.7267Z" fill="black"/>
<path d="M9.54523 47.8438L10.5517 48.2617C10.4724 48.3521 10.3667 48.4153 10.2496 48.4426C10.1324 48.4698 10.0097 48.4596 9.89863 48.4135C9.78756 48.3674 9.69374 48.2876 9.63035 48.1854C9.56696 48.0832 9.53719 47.9637 9.54523 47.8438Z" fill="black"/>
<path d="M7.49596 48.4462C7.11685 48.15 7.13776 47.5785 7.31541 46.9724C7.55437 46.2509 7.88336 45.5625 8.2946 44.9233C8.30956 44.9049 8.32164 44.8844 8.33044 44.8624L8.26883 44.9095C7.70687 45.4507 7.26968 46.1079 6.98772 46.8353C6.97305 46.868 6.96217 46.8976 6.94743 46.9303C6.66884 47.592 5.6792 47.5153 5.79823 46.4414L5.81093 46.3462C5.97603 45.5594 6.2919 44.812 6.74111 44.1453C6.88937 43.9159 6.99911 43.768 7.01677 43.7392C6.86896 43.8345 6.73574 43.9507 6.62128 44.0843C6.3864 44.3518 6.18943 44.6503 6.03589 44.9715C5.73257 45.5849 4.95427 45.9725 4.92874 45.0487C4.9279 44.8944 4.94555 44.7405 4.98132 44.5904L4.992 44.5465C5.01841 44.4354 5.05158 44.3261 5.09133 44.2191C5.13849 44.0848 5.19411 43.9535 5.25787 43.8262C5.31412 43.7161 5.37415 43.603 5.44438 43.4912C5.54094 43.3277 5.64854 43.171 5.76645 43.0221C5.84538 42.9179 5.93031 42.8183 6.02079 42.7239C6.32163 42.3877 6.67757 42.1053 7.07332 41.8887C7.79706 41.5152 8.6316 41.4166 9.42244 41.6112C10.2133 41.8058 10.9068 42.2803 11.3746 42.9469C11.6872 43.3613 11.9038 43.8399 12.0089 44.3481C12.114 44.8563 12.105 45.3816 11.9825 45.8859C11.9705 45.95 11.9589 46.0107 11.9445 46.0676C11.9405 46.0926 11.9349 46.1173 11.9277 46.1416C11.9165 46.1989 11.9025 46.2523 11.8884 46.3059C11.8757 46.3491 11.8626 46.3959 11.8499 46.4391C11.8363 46.4892 11.8193 46.5388 11.8027 46.585L11.8013 46.5952C11.7909 46.6215 11.7839 46.6483 11.7739 46.6711L10.2112 45.8849C10.2019 45.8767 10.196 45.869 10.1867 45.8608C10.11 45.7883 10.0113 45.7434 9.90618 45.7334C9.46878 45.6924 9.09432 46.4244 8.93043 47.0045C8.89097 47.1445 8.84583 47.3531 8.78443 47.5802C8.59515 48.2468 8.25805 49.0357 7.49596 48.4462Z" fill="black"/>
<path d="M24.9914 21.4481C24.9375 21.4481 24.8841 21.4375 24.8343 21.4169C24.7845 21.3963 24.7392 21.366 24.7012 21.3278L22.2984 18.9247C22.2217 18.8477 22.1786 18.7433 22.1787 18.6346C22.1788 18.5259 22.222 18.4217 22.2989 18.3448C22.3758 18.2679 22.48 18.2247 22.5887 18.2246C22.6975 18.2245 22.8018 18.2676 22.8788 18.3443L25.2815 20.7475C25.3389 20.8049 25.378 20.878 25.3938 20.9576C25.4096 21.0372 25.4015 21.1197 25.3705 21.1947C25.3394 21.2697 25.2868 21.3338 25.2193 21.3789C25.1519 21.424 25.0725 21.4481 24.9914 21.4481Z" fill="black"/>
<path d="M22.5881 21.4481C22.5069 21.4481 22.4276 21.424 22.3601 21.3789C22.2926 21.3338 22.24 21.2697 22.209 21.1947C22.1779 21.1197 22.1698 21.0372 22.1856 20.9576C22.2014 20.878 22.2405 20.8049 22.2979 20.7475L24.7007 18.3443C24.7777 18.2676 24.882 18.2245 24.9907 18.2246C25.0994 18.2247 25.2037 18.2679 25.2805 18.3448C25.3574 18.4217 25.4006 18.5259 25.4007 18.6346C25.4008 18.7433 25.3578 18.8477 25.281 18.9247L22.8783 21.3278C22.8402 21.366 22.795 21.3963 22.7452 21.4169C22.6954 21.4375 22.642 21.4481 22.5881 21.4481Z" fill="black"/>
<path d="M44.8881 21.4481C44.8342 21.4481 44.7808 21.4375 44.731 21.4169C44.6812 21.3963 44.636 21.366 44.5979 21.3278L42.1949 18.9247C42.1182 18.8477 42.0751 18.7433 42.0752 18.6346C42.0753 18.5259 42.1185 18.4217 42.1954 18.3448C42.2723 18.2679 42.3765 18.2247 42.4852 18.2246C42.5939 18.2245 42.6982 18.2676 42.7752 18.3443L45.1782 20.7475C45.2356 20.8049 45.2747 20.878 45.2905 20.9576C45.3064 21.0372 45.2982 21.1197 45.2672 21.1947C45.2361 21.2697 45.1835 21.3338 45.1161 21.3789C45.0486 21.424 44.9692 21.4481 44.8881 21.4481Z" fill="black"/>
<path d="M42.4855 21.4481C42.4044 21.4481 42.325 21.424 42.2576 21.3789C42.1901 21.3338 42.1375 21.2697 42.1064 21.1947C42.0754 21.1197 42.0672 21.0372 42.0831 20.9576C42.0989 20.878 42.138 20.8049 42.1954 20.7475L44.5984 18.3443C44.6754 18.2676 44.7797 18.2245 44.8884 18.2246C44.9971 18.2247 45.1014 18.2679 45.1782 18.3448C45.2551 18.4217 45.2983 18.5259 45.2984 18.6346C45.2985 18.7433 45.2555 18.8477 45.1787 18.9247L42.7757 21.3278C42.7377 21.366 42.6924 21.3963 42.6426 21.4169C42.5928 21.4375 42.5394 21.4481 42.4855 21.4481Z" fill="black"/>
</svg>
