<svg width="73" height="65" viewBox="0 0 73 65" fill="none" xmlns="http://www.w3.org/2000/svg">
<path d="M45.2326 37.0305C41.9984 36.9905 38.8758 35.842 36.3863 33.7769C36.187 33.6187 36.0585 33.388 36.029 33.1352C35.9994 32.8825 36.0714 32.6283 36.2289 32.4285C36.3865 32.2287 36.6169 32.0995 36.8695 32.0692C37.1222 32.039 37.3766 32.1102 37.5768 32.2672C44.1931 37.4826 50.9522 34.7275 54.73 30.7828C54.8172 30.6912 54.9216 30.6177 55.0373 30.5666C55.1529 30.5154 55.2775 30.4876 55.4039 30.4846C55.5303 30.4817 55.6561 30.5038 55.774 30.5495C55.8919 30.5953 55.9996 30.6638 56.0909 30.7513C56.1822 30.8387 56.2554 30.9433 56.3063 31.0591C56.3571 31.1749 56.3846 31.2996 56.3872 31.426C56.3897 31.5524 56.3673 31.6781 56.3213 31.7959C56.2752 31.9136 56.2063 32.0211 56.1186 32.1122C54.7254 33.6186 53.0441 34.8301 51.1742 35.6749C49.3043 36.5198 47.2839 36.9807 45.2326 37.0305Z" fill="black"/>
<path d="M72.5237 18.3887L56.2881 18.6766L56.6835 40.9785L72.9192 40.6906L72.5237 18.3887ZM58.3097 39.5192L57.965 20.0772L60.5132 20.0321C60.5517 20.348 60.7053 20.6386 60.9447 20.8483C61.1841 21.058 61.4924 21.1721 61.8106 21.1687L67.5008 21.0678C67.819 21.06 68.1231 20.935 68.3549 20.7169C68.5867 20.4988 68.7299 20.2029 68.7571 19.8858L70.8977 19.8478L71.2424 39.2898L58.3097 39.5192Z" fill="black"/>
<path d="M69.3309 37.4398L65.9225 37.4355C65.8349 37.4355 65.7506 37.4702 65.6886 37.532C65.6267 37.5939 65.5919 37.6778 65.5918 37.7653C65.5917 37.8528 65.6264 37.9368 65.6883 37.9987C65.7501 38.0607 65.834 38.0955 65.9216 38.0955L69.3299 38.0998C69.4174 38.0998 69.5018 38.0651 69.5637 38.0033C69.6257 37.9414 69.6605 37.8575 69.6606 37.77C69.6606 37.6825 69.6259 37.5985 69.5641 37.5366C69.5022 37.4747 69.4184 37.4399 69.3309 37.4398Z" fill="black"/>
<path d="M59.4069 23.3104L62.8153 23.3142C62.9028 23.3142 62.9872 23.2795 63.0492 23.2177C63.1111 23.1558 63.1459 23.0719 63.146 22.9844C63.146 22.8969 63.1113 22.8129 63.0495 22.751C62.9876 22.6891 62.9037 22.6542 62.8162 22.6542L59.4079 22.6504C59.3645 22.6504 59.3211 22.6589 59.2811 22.6754C59.241 22.692 59.2046 22.7163 59.174 22.7469C59.1433 22.7775 59.119 22.8139 59.1024 22.8539C59.0857 22.8939 59.0772 22.9368 59.0771 22.9802C59.0771 23.0235 59.0856 23.0664 59.1022 23.1065C59.1187 23.1465 59.143 23.1829 59.1737 23.2136C59.2043 23.2442 59.2406 23.2686 59.2807 23.2852C59.3207 23.3018 59.3636 23.3104 59.4069 23.3104Z" fill="black"/>
<path d="M59.3942 24.8065L69.093 24.8177C69.1363 24.8177 69.1797 24.8092 69.2198 24.7927C69.2598 24.7761 69.2962 24.7518 69.3269 24.7212C69.3576 24.6906 69.3819 24.6542 69.3985 24.6142C69.4151 24.5742 69.4237 24.5313 69.4237 24.4879C69.4237 24.4446 69.4152 24.4017 69.3987 24.3616C69.3821 24.3216 69.3578 24.2852 69.3272 24.2545C69.2966 24.2239 69.2602 24.1995 69.2202 24.1829C69.1802 24.1663 69.1373 24.1577 69.0939 24.1577L59.3951 24.1465C59.3076 24.1464 59.2232 24.1811 59.1613 24.243C59.0994 24.3048 59.0645 24.3887 59.0645 24.4762C59.0644 24.5638 59.0991 24.6477 59.1609 24.7097C59.2228 24.7716 59.3067 24.8064 59.3942 24.8065Z" fill="black"/>
<path d="M59.4714 26.6073L69.1702 26.6186C69.2135 26.6186 69.2569 26.6101 69.2969 26.5935C69.337 26.577 69.3734 26.5527 69.4041 26.5221C69.4347 26.4915 69.4591 26.4551 69.4757 26.4151C69.4923 26.375 69.5009 26.3321 69.5009 26.2888C69.5009 26.2455 69.4924 26.2025 69.4759 26.1625C69.4593 26.1224 69.435 26.086 69.4044 26.0554C69.3738 26.0247 69.3374 26.0004 69.2974 25.9838C69.2574 25.9672 69.2145 25.9586 69.1711 25.9586L59.4723 25.9473C59.3848 25.9472 59.3004 25.9819 59.2384 26.0438C59.1765 26.1056 59.1417 26.1895 59.1416 26.277C59.1415 26.3645 59.1762 26.4485 59.2381 26.5104C59.2999 26.5724 59.3838 26.6072 59.4714 26.6073Z" fill="black"/>
<path d="M63.562 27.7723L59.4792 27.7676C59.4358 27.7675 59.3924 27.7761 59.3524 27.7926C59.3123 27.8092 59.2759 27.8334 59.2453 27.8641C59.2146 27.8947 59.1903 27.931 59.1736 27.9711C59.157 28.0111 59.1485 28.054 59.1484 28.0973C59.1484 28.1407 59.1569 28.1836 59.1735 28.2236C59.19 28.2637 59.2143 28.3001 59.2449 28.3308C59.2755 28.3614 59.3119 28.3858 59.3519 28.4024C59.3919 28.419 59.4349 28.4275 59.4782 28.4276L63.5611 28.4323C63.6486 28.4323 63.733 28.3976 63.795 28.3358C63.8569 28.274 63.8917 28.19 63.8918 28.1025C63.8919 28.015 63.8572 27.931 63.7953 27.8691C63.7335 27.8072 63.6496 27.7723 63.562 27.7723Z" fill="black"/>
<path d="M41.5639 60.9469C41.309 60.9469 41.0644 60.8456 40.8841 60.6653C40.7038 60.485 40.6026 60.2405 40.6025 59.9855V46.8333C40.6034 46.5789 40.705 46.3351 40.8852 46.1555C41.0654 45.9759 41.3095 45.875 41.5639 45.875C41.8184 45.875 42.0625 45.9759 42.2427 46.1555C42.4229 46.3351 42.5245 46.5789 42.5253 46.8333V59.9855C42.5253 60.2405 42.424 60.485 42.2437 60.6653C42.0634 60.8456 41.8189 60.9469 41.5639 60.9469Z" fill="black"/>
<path d="M40.5479 59.6768C40.2013 59.7502 39.8898 59.9391 39.6645 60.2125C39.4391 60.4859 39.3131 60.8277 39.307 61.1819C39.1628 62.5375 39.2205 63.8066 39.5955 64.0229C39.9704 64.2392 41.0664 64.1815 43.4603 64.1815H47.9885C48.5241 64.1815 48.7524 62.9558 48.2193 61.8921C47.4441 60.3455 45.3927 60.2013 44.4842 60.1581C43.5757 60.1148 44.1814 59.0621 43.5324 58.8458C43.4051 58.7926 43.2685 58.7653 43.1305 58.7656C42.9925 58.7659 42.856 58.7938 42.729 58.8476C42.521 58.9841 42.5232 59.2778 42.523 59.5668C42.5224 60.0624 40.8357 60.4176 40.5479 59.6768Z" fill="black"/>
<path d="M17.4419 60.9469C17.1869 60.9469 16.9424 60.8456 16.7621 60.6653C16.5818 60.485 16.4805 60.2405 16.4805 59.9855V46.8333C16.4813 46.5789 16.5829 46.3351 16.7632 46.1555C16.9434 45.9759 17.1874 45.875 17.4419 45.875C17.6963 45.875 17.9404 45.9759 18.1206 46.1555C18.3008 46.3351 18.4025 46.5789 18.4033 46.8333V59.9855C18.4033 60.2405 18.302 60.485 18.1217 60.6653C17.9414 60.8456 17.6968 60.9469 17.4419 60.9469Z" fill="black"/>
<path d="M16.4258 59.6768C16.0792 59.7502 15.7678 59.9391 15.5424 60.2125C15.317 60.4859 15.191 60.8277 15.185 61.1819C15.0408 62.5375 15.0985 63.8066 15.4734 64.0229C15.8483 64.2392 16.9443 64.1815 19.3382 64.1815H23.8665C24.402 64.1815 24.6303 62.9558 24.0972 61.8921C23.3221 60.3455 21.2707 60.2013 20.3622 60.1581C19.4537 60.1148 20.0593 59.0621 19.4104 58.8458C19.2831 58.7926 19.1465 58.7653 19.0085 58.7656C18.8705 58.7659 18.734 58.7938 18.607 58.8476C18.399 58.9841 18.4012 59.2778 18.401 59.5668C18.4004 60.0624 16.7136 60.4176 16.4258 59.6768Z" fill="black"/>
<path d="M12.304 4.46346C12.9611 4.46346 13.4937 3.9308 13.4937 3.27372C13.4937 2.61665 12.9611 2.08398 12.304 2.08398C11.6469 2.08398 11.1143 2.61665 11.1143 3.27372C11.1143 3.9308 11.6469 4.46346 12.304 4.46346Z" fill="black"/>
<path d="M15.2646 3.54286C15.1826 3.54279 15.1038 3.51045 15.0454 3.45283C14.9869 3.39521 14.9535 3.31693 14.9522 3.23486C14.9423 2.62353 14.7222 2.03425 14.329 1.56601C14.2758 1.50258 14.2499 1.42058 14.257 1.33804C14.2642 1.25551 14.3039 1.17921 14.3673 1.12592C14.4307 1.07264 14.5127 1.04673 14.5953 1.05391C14.6778 1.06108 14.7541 1.10075 14.8074 1.16418C15.293 1.74253 15.5648 2.47039 15.577 3.22547C15.5782 3.30833 15.5465 3.38826 15.4888 3.44775C15.4311 3.50723 15.3522 3.54142 15.2693 3.54281L15.2646 3.54286Z" fill="black"/>
<path d="M10.2285 1.47512C10.1665 1.4751 10.1058 1.4566 10.0543 1.422C10.0028 1.38739 9.96275 1.33824 9.93927 1.28081C9.91579 1.22337 9.90993 1.16024 9.92243 1.09946C9.93494 1.03868 9.96525 0.983001 10.0095 0.939505C10.336 0.617468 10.7267 0.367899 11.1561 0.207091C11.5855 0.0462832 12.0441 -0.0221464 12.5018 0.00626616C12.5427 0.0087053 12.5828 0.0191888 12.6197 0.0371194C12.6566 0.05505 12.6896 0.0800756 12.7168 0.110766C12.744 0.141456 12.7649 0.17721 12.7783 0.215985C12.7917 0.254759 12.7974 0.295793 12.7949 0.336745C12.7932 0.377942 12.7831 0.418363 12.7654 0.455596C12.7477 0.492828 12.7226 0.526108 12.6918 0.553448C12.6609 0.580789 12.6248 0.601631 12.5857 0.614728C12.5466 0.627824 12.5053 0.632907 12.4642 0.629675C12.0941 0.609483 11.7238 0.666217 11.3767 0.7963C11.0296 0.926382 10.7132 1.12699 10.4475 1.38547C10.3891 1.44294 10.3104 1.47515 10.2285 1.47512Z" fill="black"/>
<path d="M9.94818 5.37771C9.89996 5.37774 9.8524 5.3666 9.8092 5.34519C9.766 5.32377 9.72835 5.29264 9.69918 5.25425C9.21262 4.61436 8.97845 3.81785 9.04127 3.01645C9.04885 2.93426 9.08818 2.85828 9.1509 2.80463C9.21362 2.75098 9.29479 2.72391 9.37715 2.72916C9.45977 2.73571 9.53641 2.77479 9.59023 2.83781C9.64406 2.90083 9.67067 2.98264 9.66421 3.06527C9.61338 3.71373 9.80295 4.35822 10.1968 4.87589C10.2319 4.92224 10.2535 4.97748 10.259 5.0354C10.2644 5.09331 10.2537 5.15161 10.2279 5.20374C10.202 5.25588 10.1622 5.29978 10.1128 5.33051C10.0634 5.36124 10.0064 5.37758 9.94818 5.37771Z" fill="black"/>
<path d="M14.1646 9.3358C14.0985 9.33576 14.0342 9.3148 13.9807 9.27593C13.9273 9.23705 13.8876 9.18225 13.8672 9.11938L12.0071 3.36879C11.9818 3.29001 11.9889 3.20443 12.0267 3.13083C12.0644 3.05722 12.1298 3.00159 12.2085 2.97612C12.2872 2.95065 12.3728 2.95742 12.4466 2.99495C12.5203 3.03248 12.5761 3.0977 12.6018 3.17632L14.462 8.92692C14.477 8.97382 14.4807 9.02359 14.4729 9.07221C14.4651 9.12082 14.4459 9.16691 14.4169 9.20674C14.388 9.24656 14.35 9.279 14.3062 9.30142C14.2623 9.32384 14.2138 9.33562 14.1646 9.3358Z" fill="black"/>
<path d="M28.7428 44.0178L11.9004 43.293C12.1071 44.3708 12.6351 45.3609 13.415 46.1331C14.1949 46.9052 15.1902 47.4233 16.27 47.6193C20.4088 48.3092 24.6011 48.6259 28.7965 48.5657C33.2698 48.5969 37.7388 48.2804 42.163 47.6193C43.2429 47.4233 44.2382 46.9052 45.0181 46.1331C45.798 45.3609 46.326 44.3708 46.5327 43.293L28.7428 44.0178Z" fill="black"/>
<path d="M49.8957 29.901C49.2677 27.0168 45.0437 26.959 45.0437 26.959H12.5494C12.5494 26.959 8.32543 27.0167 7.69734 29.901C7.06947 32.7852 6.84062 40.3418 10.6653 43.6451C13.2139 45.8462 23.5206 46.2274 28.7966 46.1763C31.5372 46.2029 44.3509 45.8707 46.9278 43.6451C50.7526 40.3418 50.5237 32.7852 49.8957 29.901Z" fill="black"/>
<path d="M51.2222 14.8715C51.2004 12.0225 49.2186 9.9826 46.4002 8.53045C43.6795 7.24417 40.7851 6.36338 37.8091 5.91613C36.2377 5.64459 34.6977 5.45599 33.298 5.32897C30.2863 5.17222 27.2685 5.17423 24.2571 5.33497C22.0968 5.52698 19.9501 5.85009 17.829 6.3025C15.0529 6.82504 12.3887 7.82618 9.95549 9.26124C7.82649 10.6452 6.41685 12.4712 6.39849 14.8715C6.29956 17.5779 6.45087 20.2876 6.85049 22.9662C7.41849 25.9191 8.62478 27.479 11.0376 27.9735C14.9896 28.7834 24.7113 28.8048 28.6555 28.8053H28.9652C32.9094 28.8048 42.631 28.7834 46.5831 27.9735C49.1367 27.4501 50.3389 25.7333 50.8633 22.4348C51.1794 19.9268 51.2994 17.3981 51.2222 14.8715ZM49.9112 20.6244C49.7566 21.4072 49.3415 22.1146 48.7334 22.6313C48.1253 23.1479 47.3602 23.4433 46.5627 23.4694C44.9904 23.6942 42.2699 23.8095 39.5508 23.8687C38.2881 23.8961 35.8368 23.911 33.3332 23.9148C30.4495 23.9191 27.4964 23.9089 26.2114 23.8864C23.5657 23.8808 20.9219 23.7416 18.2902 23.4694C17.6697 23.444 17.0666 23.2565 16.5412 22.9255C16.0157 22.5945 15.5861 22.1316 15.2952 21.5829C14.7016 20.4039 14.5734 18.6516 14.6003 16.2012C14.6208 14.33 16.8266 13.088 19.7349 12.2714C21.732 11.7441 23.7676 11.3756 25.8228 11.1693C27.0229 11.0366 29.6609 10.8481 32.1521 10.8411C34.5083 10.8337 36.8633 10.9499 39.2073 11.1892C41.4468 11.4125 43.6604 11.8451 45.8192 12.4812C48.3736 13.2962 50.2337 14.4836 50.2525 16.2012C50.3264 17.6841 50.2117 19.1704 49.9112 20.6244Z" fill="black"/>
<path d="M22.4612 17.5865C23.0665 17.5865 23.5572 17.0958 23.5572 16.4905C23.5572 15.8852 23.0665 15.3945 22.4612 15.3945C21.8559 15.3945 21.3652 15.8852 21.3652 16.4905C21.3652 17.0958 21.8559 17.5865 22.4612 17.5865Z" fill="black"/>
<path d="M45.304 17.5865C45.9093 17.5865 46.4 17.0958 46.4 16.4905C46.4 15.8852 45.9093 15.3945 45.304 15.3945C44.6987 15.3945 44.208 15.8852 44.208 16.4905C44.208 17.0958 44.6987 17.5865 45.304 17.5865Z" fill="black"/>
<path d="M34.0849 21.3272C33.4605 21.3056 32.8668 21.051 32.4206 20.6136C31.9745 20.1761 31.7083 19.5875 31.6744 18.9636C31.6614 18.8371 31.6991 18.7107 31.7792 18.6119C31.8593 18.5131 31.9752 18.4501 32.1017 18.4366C32.2281 18.4231 32.3547 18.4603 32.4538 18.54C32.5529 18.6197 32.6164 18.7354 32.6304 18.8618C32.6478 19.0158 32.8367 20.3658 34.0849 20.3658C35.3346 20.3658 35.4468 18.7533 35.4508 18.6843C35.4584 18.5574 35.516 18.4387 35.6109 18.3541C35.7059 18.2696 35.8305 18.2261 35.9574 18.2332C36.0843 18.2402 36.2033 18.2973 36.2883 18.3919C36.3732 18.4865 36.4173 18.6109 36.4108 18.7378C36.3624 19.6335 35.8139 21.3272 34.0849 21.3272Z" fill="black"/>
<path d="M56.5624 33.1959C55.7759 32.8518 55.1394 32.2364 54.7691 31.4619C54.4454 30.6554 54.3896 29.7662 54.6098 28.9255C54.83 28.0848 55.3145 27.3371 55.992 26.7928C57.5419 25.4942 58.9699 25.8373 58.9042 26.6484C58.8477 27.3462 57.4194 27.527 56.4635 28.4785L56.5624 33.1959Z" fill="black"/>
<path d="M2.72963 45.0191C2.51561 45.0187 2.30852 44.9431 2.14464 44.8055C1.98075 44.6678 1.87052 44.4769 1.83323 44.2662C0.719912 37.9529 3.31366 30.5516 11.6184 28.248C11.7337 28.216 11.8542 28.2071 11.9729 28.2216C12.0917 28.2362 12.2064 28.274 12.3106 28.3329C12.4147 28.3918 12.5062 28.4706 12.5799 28.5649C12.6536 28.6592 12.708 28.767 12.74 28.8823C12.772 28.9976 12.7809 29.1181 12.7664 29.2368C12.7518 29.3556 12.714 29.4703 12.6551 29.5745C12.5962 29.6786 12.5174 29.7702 12.4231 29.8438C12.3288 29.9175 12.221 29.9719 12.1057 30.0039C4.40966 32.1393 2.72896 38.8509 3.62825 43.9493C3.67019 44.1874 3.61587 44.4324 3.47724 44.6304C3.3386 44.8284 3.12701 44.9632 2.88897 45.0053C2.83636 45.0145 2.78304 45.0191 2.72963 45.0191Z" fill="black"/>
<path d="M2.2529 47.0741C2.63879 48.195 3.58035 49.1792 4.15146 48.9331C4.72257 48.6871 3.82731 47.3475 3.65752 46.7597C3.48773 46.1719 3.61122 45.5431 3.93536 45.4474C4.2595 45.3517 4.41386 45.8438 4.56821 46.3769C4.60039 46.4935 4.65847 46.6013 4.73813 46.6923C4.81779 46.7833 4.91696 46.8551 5.02825 46.9024C5.13954 46.9497 5.26008 46.9713 5.38087 46.9655C5.50166 46.9597 5.61959 46.9267 5.72586 46.869C6.03457 46.5956 5.86478 45.4132 5.30911 43.9295C4.75344 42.4458 3.47339 42.3815 2.13711 42.5836C1.57334 42.6991 1.063 42.9963 0.684323 43.4296C0.305645 43.8629 0.0795298 44.4085 0.0406368 44.9826C-0.0901867 45.9686 0.0967403 46.9705 0.574265 47.843C0.944715 48.4376 1.47727 48.5299 1.80139 48.2633C1.55294 47.8107 1.33631 47.3414 1.15309 46.8588C1.32787 47.5369 1.67478 48.1584 2.16025 48.6631C2.77381 49.0732 3.06347 48.7535 3.1445 48.5279C2.73308 48.0678 2.42158 47.5274 2.22971 46.9408L2.2529 47.0741Z" fill="black"/>
</svg>
