<svg width="72" height="69" viewBox="0 0 72 69" fill="none" xmlns="http://www.w3.org/2000/svg">
<path d="M3.11787 50.3448C2.87518 50.3445 2.64033 50.2589 2.45448 50.1028C2.26862 49.9467 2.14364 49.7302 2.10143 49.4913C0.838817 42.3348 3.77919 33.9439 13.1946 31.3325C13.4585 31.2593 13.7407 31.294 13.9791 31.4289C14.2175 31.5638 14.3926 31.7878 14.4657 32.0518C14.5389 32.3158 14.5043 32.598 14.3694 32.8364C14.2345 33.0748 14.0104 33.2498 13.7464 33.323C5.02164 35.7438 3.11642 43.3522 4.13635 49.1321C4.18388 49.4019 4.12233 49.6796 3.96521 49.904C3.80809 50.1285 3.56828 50.2814 3.29848 50.3291C3.23884 50.3395 3.17841 50.3448 3.11787 50.3448Z" fill="white"/>
<path d="M17.3507 4.79518C18.0568 4.79518 18.6292 4.2228 18.6292 3.51673C18.6292 2.81066 18.0568 2.23828 17.3507 2.23828C16.6446 2.23828 16.0723 2.81066 16.0723 3.51673C16.0723 4.2228 16.6446 4.79518 17.3507 4.79518Z" fill="white"/>
<path d="M20.5317 3.80787C20.4435 3.80777 20.3589 3.77303 20.296 3.71114C20.2332 3.64925 20.1972 3.56515 20.1957 3.47696C20.1859 2.82001 19.9497 2.18657 19.5268 1.68368C19.4983 1.64998 19.4767 1.61098 19.4632 1.56891C19.4498 1.52684 19.4447 1.48253 19.4484 1.43852C19.4521 1.39451 19.4645 1.35167 19.4848 1.31243C19.5051 1.2732 19.5329 1.23836 19.5667 1.20989C19.6004 1.18143 19.6395 1.15991 19.6816 1.14656C19.7237 1.13321 19.768 1.1283 19.812 1.13211C19.856 1.13592 19.8988 1.14836 19.938 1.16874C19.9772 1.18912 20.012 1.21703 20.0403 1.25087C20.5625 1.87256 20.8546 2.6551 20.8676 3.46687C20.8688 3.55593 20.8347 3.64183 20.7726 3.70575C20.7106 3.76967 20.6258 3.80639 20.5367 3.80787H20.5317Z" fill="white"/>
<path d="M15.1192 1.58459C15.0525 1.58458 14.9873 1.56473 14.9319 1.52756C14.8766 1.49039 14.8335 1.43758 14.8082 1.37586C14.783 1.31414 14.7767 1.2463 14.7901 1.18097C14.8035 1.11565 14.8361 1.05579 14.8836 1.00903C15.2353 0.664066 15.6553 0.396605 16.1167 0.223882C16.578 0.0511592 17.0704 -0.0229951 17.5622 0.00619844C17.6507 0.0119061 17.7334 0.0524692 17.7922 0.11901C17.8509 0.18555 17.8809 0.272647 17.8755 0.361239C17.8702 0.449831 17.83 0.532701 17.7637 0.591711C17.6974 0.65072 17.6104 0.681064 17.5218 0.676099C17.1241 0.654848 16.7264 0.716019 16.3534 0.855775C15.9805 0.995532 15.6405 1.21086 15.3548 1.48824C15.2919 1.55001 15.2073 1.58462 15.1192 1.58459Z" fill="white"/>
<path d="M14.8179 5.77914C14.766 5.77918 14.7149 5.76717 14.6685 5.74406C14.6221 5.72095 14.5817 5.68736 14.5505 5.64596C14.0278 4.95832 13.7762 4.10243 13.8438 3.2413C13.8518 3.15324 13.8941 3.07187 13.9617 3.01483C14.0292 2.95779 14.1165 2.92967 14.2047 2.93657C14.2928 2.94348 14.3747 2.98485 14.4325 3.05171C14.4904 3.11858 14.5195 3.20555 14.5137 3.29377C14.459 3.99078 14.6624 4.68357 15.0852 5.24039C15.1119 5.27549 15.1313 5.3155 15.1425 5.35813C15.1537 5.40076 15.1564 5.44518 15.1504 5.48884C15.1444 5.5325 15.1298 5.57455 15.1076 5.61259C15.0853 5.65063 15.0558 5.68391 15.0207 5.71053C14.9625 5.7552 14.8912 5.77933 14.8179 5.77914Z" fill="white"/>
<path d="M19.3498 10.0314C19.2788 10.0314 19.2097 10.0089 19.1523 9.96709C19.0949 9.92531 19.0523 9.8664 19.0305 9.79885L17.0314 3.61998C17.0176 3.578 17.0123 3.53371 17.0156 3.48965C17.019 3.44559 17.0311 3.40263 17.0511 3.36324C17.0711 3.32385 17.0987 3.28881 17.1323 3.26011C17.1659 3.23141 17.2048 3.20963 17.2469 3.19602C17.2889 3.1824 17.3332 3.17722 17.3773 3.18077C17.4213 3.18433 17.4642 3.19654 17.5035 3.21672C17.5428 3.23689 17.5778 3.26463 17.6064 3.29834C17.6349 3.33205 17.6566 3.37107 17.67 3.41316L19.6691 9.59203C19.6853 9.64241 19.6894 9.69589 19.681 9.74814C19.6726 9.80038 19.652 9.84991 19.6209 9.89271C19.5898 9.93551 19.5491 9.97038 19.502 9.99447C19.4549 10.0186 19.4027 10.0312 19.3498 10.0314Z" fill="white"/>
<path d="M50.3417 65.4883C50.0677 65.4883 49.8049 65.3794 49.6112 65.1857C49.4175 64.992 49.3086 64.7292 49.3086 64.4552V50.3229C49.3094 50.0494 49.4187 49.7875 49.6123 49.5944C49.806 49.4014 50.0682 49.293 50.3417 49.293C50.6151 49.293 50.8774 49.4014 51.0711 49.5944C51.2647 49.7875 51.3739 50.0494 51.3748 50.3229V64.4552C51.3748 64.7292 51.2659 64.992 51.0722 65.1857C50.8784 65.3794 50.6157 65.4883 50.3417 65.4883Z" fill="white"/>
<path d="M49.2504 64.1256C48.8779 64.2045 48.5432 64.4075 48.301 64.7013C48.0589 64.9951 47.9235 65.3623 47.917 65.743C47.762 67.1996 47.824 68.5633 48.2269 68.7958C48.6298 69.0282 49.8075 68.9662 52.3799 68.9662H57.2458C57.8212 68.9662 58.0666 67.6491 57.4937 66.5061C56.6608 64.8442 54.4564 64.6892 53.4802 64.6427C52.5039 64.5963 53.1547 63.465 52.4574 63.2326C52.3206 63.1754 52.1738 63.1462 52.0255 63.1465C51.8773 63.1468 51.7306 63.1767 51.594 63.2345C51.3705 63.3812 51.373 63.6969 51.3726 64.0074C51.3722 64.5399 49.5596 64.9217 49.2504 64.1256Z" fill="white"/>
<path d="M21.6474 65.4896C21.3734 65.4895 21.1106 65.3807 20.9169 65.187C20.7231 64.9932 20.6143 64.7305 20.6143 64.4565V50.3241C20.6143 50.0501 20.7231 49.7873 20.9168 49.5936C21.1106 49.3999 21.3734 49.291 21.6474 49.291C21.9213 49.291 22.1841 49.3999 22.3779 49.5936C22.5716 49.7873 22.6804 50.0501 22.6804 50.3241V64.4565C22.6804 64.7305 22.5716 64.9932 22.3778 65.187C22.1841 65.3807 21.9213 65.4895 21.6474 65.4896Z" fill="white"/>
<path d="M22.7392 64.1256C23.1117 64.2045 23.4463 64.4075 23.6885 64.7013C23.9307 64.9951 24.0661 65.3623 24.0726 65.743C24.2276 67.1996 24.1656 68.5633 23.7627 68.7958C23.3597 69.0282 22.182 68.9662 19.6097 68.9662H14.7438C14.1684 68.9662 13.923 67.6491 14.4959 66.5061C15.3288 64.8442 17.5332 64.6892 18.5094 64.6427C19.4857 64.5963 18.8349 63.465 19.5322 63.2326C19.669 63.1754 19.8158 63.1462 19.9641 63.1465C20.1123 63.1468 20.259 63.1767 20.3956 63.2345C20.6191 63.3812 20.6166 63.6969 20.6169 64.0074C20.6175 64.5399 22.43 64.9217 22.7392 64.1256Z" fill="white"/>
<path d="M55.6305 34.2637C55.3684 34.2635 55.1162 34.1635 54.925 33.9842C54.7338 33.8049 54.6179 33.5596 54.6008 33.298C54.5838 33.0364 54.6668 32.7781 54.8331 32.5755C54.9993 32.3728 55.2364 32.241 55.4963 32.2066C64.4723 31.0182 67.4127 23.7467 67.2033 17.8811C67.1937 17.6073 67.2932 17.3408 67.4799 17.1403C67.6666 16.9398 67.9253 16.8216 68.1991 16.8117C68.3351 16.8053 68.4709 16.8261 68.5987 16.873C68.7265 16.9199 68.8437 16.9918 68.9433 17.0845C69.0429 17.1773 69.123 17.289 69.1789 17.4132C69.2347 17.5373 69.2652 17.6713 69.2685 17.8074C69.5273 25.0703 65.4534 32.9724 55.7677 34.2547C55.7222 34.2607 55.6764 34.2637 55.6305 34.2637Z" fill="white"/>
<path d="M35.0143 47.3003L16.916 46.5215C16.916 46.5215 17.6134 50.5661 21.6115 51.1704C26.0588 51.9117 30.5638 52.2521 35.072 52.1873C39.8788 52.2208 44.681 51.8808 49.4352 51.1704C53.4332 50.5661 54.1306 46.5215 54.1306 46.5215L35.0143 47.3003Z" fill="white"/>
<path d="M57.7449 32.1301C57.0701 29.0308 52.5311 28.9688 52.5311 28.9688H17.6139C17.6139 28.9688 13.0749 29.0308 12.4 32.1301C11.7253 35.2293 11.4794 43.3494 15.5893 46.8991C18.3279 49.2642 29.4031 49.6739 35.0725 49.6191C38.0175 49.6476 51.7866 49.2906 54.5557 46.8991C58.6656 43.3494 58.4197 35.2293 57.7449 32.1301Z" fill="white"/>
<path d="M59.1704 15.9799C59.1025 7.0943 41.2925 5.5332 35.2539 5.47925V5.47656C35.202 5.47656 35.1415 5.47772 35.0875 5.47797C35.0334 5.47772 34.9729 5.47656 34.921 5.47656V5.47925C28.8824 5.53325 11.0726 7.0943 11.0045 15.9799C10.9354 25.0305 11.6277 29.1649 15.9895 30.0588C20.2362 30.929 30.6828 30.952 34.921 30.9526H35.2539C39.4921 30.952 49.9387 30.929 54.1855 30.0588C58.5473 29.1649 59.2397 25.0305 59.1704 15.9799ZM52.4923 25.2189C48.6902 25.7018 39.3375 25.7145 35.5429 25.7149H35.2449C31.4504 25.7146 22.0976 25.7018 18.2955 25.2189C14.3904 24.7231 13.7706 22.4296 13.8325 17.4088C13.8934 12.4796 29.8386 11.6136 35.2449 11.5837V11.5822C35.2915 11.5822 35.3456 11.5828 35.3939 11.583C35.4423 11.5828 35.4965 11.5822 35.543 11.5822V11.5837C40.9493 11.6136 56.8945 12.4796 56.9554 17.4088C57.0172 22.4297 56.3974 24.7231 52.4923 25.2189Z" fill="white"/>
<path d="M23.0996 18.8965C23.75 18.8965 24.2773 18.3692 24.2773 17.7187C24.2773 17.0683 23.75 16.541 23.0996 16.541C22.4492 16.541 21.9219 17.0683 21.9219 17.7187C21.9219 18.3692 22.4492 18.8965 23.0996 18.8965Z" fill="white"/>
<path d="M47.6455 18.8965C48.2959 18.8965 48.8232 18.3692 48.8232 17.7187C48.8232 17.0683 48.2959 16.541 47.6455 16.541C46.9951 16.541 46.4678 17.0683 46.4678 17.7187C46.4678 18.3692 46.9951 18.8965 47.6455 18.8965Z" fill="white"/>
<path d="M35.5892 22.9152C34.9183 22.8921 34.2803 22.6186 33.8008 22.1487C33.3214 21.6787 33.0354 21.0462 32.9989 20.3759C32.9918 20.3084 32.9981 20.2402 33.0174 20.1752C33.0367 20.1102 33.0686 20.0496 33.1113 19.997C33.1541 19.9443 33.2068 19.9006 33.2664 19.8683C33.3261 19.836 33.3915 19.8158 33.459 19.8089C33.5264 19.801 33.5946 19.8066 33.6598 19.8255C33.725 19.8443 33.7858 19.876 33.8386 19.9186C33.8914 19.9612 33.9351 20.0139 33.9673 20.0736C33.9995 20.1333 34.0194 20.1989 34.026 20.2664C34.0446 20.4319 34.2479 21.8821 35.5892 21.8821C36.932 21.8821 37.0526 20.1499 37.0571 20.0757C37.0648 19.9389 37.1264 19.8108 37.2285 19.7194C37.3307 19.6281 37.4649 19.5811 37.6017 19.5887C37.7385 19.5963 37.8666 19.658 37.958 19.7601C38.0493 19.8622 38.0963 19.9964 38.0887 20.1332C38.0362 21.0957 37.4471 22.9152 35.5892 22.9152Z" fill="white"/>
<path d="M71.4279 13.7472C71.583 14.3267 71.6121 14.9328 71.5131 15.5245C71.4142 16.1161 71.1895 16.6797 70.8543 17.1772C70.6053 17.4915 70.2927 17.7495 69.937 17.9344C69.5812 18.1193 69.1904 18.2268 68.7901 18.2499C67.9702 18.3329 67.1436 18.1795 66.4081 17.8076C65.6726 17.4358 65.059 16.8612 64.6398 16.1516C63.7333 14.4288 64.3446 13.153 65.0955 13.378C65.7411 13.5726 65.4778 13.9635 65.724 14.702C65.9752 15.4413 66.3358 15.5856 66.7458 15.4134C67.1333 15.2538 67.0088 13.6821 66.9715 12.6441C66.929 11.6055 66.81 9.91982 67.7758 9.91406C68.7356 9.9127 68.6596 11.6128 68.6515 12.3419C68.6519 12.488 68.6495 12.6546 68.6449 12.8365L68.65 12.8372C68.7331 12.6838 68.8629 12.5609 69.0206 12.4863C69.1782 12.4118 69.3556 12.3895 69.5269 12.4226C69.6696 12.4732 69.7967 12.56 69.8959 12.6744C69.9951 12.7888 70.0629 12.927 70.0927 13.0755C70.3589 12.9877 70.649 13.0092 70.8993 13.1351C71.1496 13.2611 71.3397 13.4812 71.4279 13.7472Z" fill="white"/>
<path d="M70.0927 13.0755C70.3589 12.9877 70.649 13.0092 70.8993 13.1351C71.1496 13.2611 71.3397 13.4812 71.4279 13.7472C71.583 14.3267 71.6121 14.9328 71.5131 15.5245C71.4142 16.1161 71.1895 16.6797 70.8543 17.1772C70.6053 17.4915 70.2927 17.7495 69.937 17.9344C69.5812 18.1193 69.1904 18.2268 68.7901 18.2499C67.9702 18.3329 67.1436 18.1795 66.4081 17.8076C65.6726 17.4358 65.059 16.8612 64.6398 16.1516C63.7333 14.4288 64.3446 13.153 65.0955 13.378C65.7411 13.5726 65.4778 13.9635 65.724 14.702C65.9752 15.4413 66.3358 15.5856 66.7458 15.4134C67.1333 15.2538 67.0088 13.6821 66.9715 12.6441C66.929 11.6055 66.81 9.91982 67.7758 9.91406C68.7356 9.9127 68.6596 11.6128 68.6515 12.3419C68.6519 12.488 68.6495 12.6546 68.6449 12.8365C68.6338 13.5495 68.6225 14.4137 68.6225 14.4137L70.0927 13.0755Z" fill="white"/>
<path d="M68.6494 12.8377C68.7325 12.6843 68.8623 12.5614 69.02 12.4869C69.1777 12.4123 69.355 12.39 69.5263 12.4231C69.669 12.4737 69.7961 12.5605 69.8953 12.6749C69.9945 12.7894 70.0623 12.9275 70.0921 13.076C70.2068 13.4883 70.2318 13.9205 70.1653 14.3432L68.6494 12.8377Z" fill="white"/>
<path d="M2.5719 52.6736C3.01245 53.9443 4.0874 55.06 4.73941 54.7811C5.39142 54.5022 4.36935 52.9835 4.17551 52.3172C3.98167 51.6508 4.12264 50.938 4.49271 50.8295C4.86278 50.721 5.03899 51.2789 5.21521 51.8833C5.25275 52.0158 5.31958 52.1382 5.41078 52.2414C5.50198 52.3446 5.61521 52.426 5.7421 52.4795C5.86898 52.5331 6.00628 52.5575 6.14385 52.5508C6.28142 52.5442 6.41573 52.5067 6.53687 52.4412C6.88931 52.1312 6.69547 50.7908 6.06107 49.1088C5.42667 47.4269 3.96529 47.354 2.43973 47.583C1.79811 47.7119 1.21649 48.0477 0.784141 48.539C0.351788 49.0303 0.0925841 49.6499 0.0463057 50.3027C-0.102901 51.4209 0.110644 52.5575 0.655536 53.5453C1.07847 54.2194 1.68644 54.324 2.05654 54.0218C1.77299 53.5089 1.52568 52.9769 1.31641 52.4295C1.51643 53.1993 1.9126 53.9041 2.46625 54.4751C3.16673 54.9399 3.49743 54.5774 3.58995 54.3217C3.12076 53.8009 2.76508 53.1882 2.54555 52.5225L2.5719 52.6736Z" fill="white"/>
</svg>
