<svg width="83" height="55" viewBox="0 0 83 55" fill="none" xmlns="http://www.w3.org/2000/svg">
<path d="M44.5353 43.3003C44.437 43.3001 44.3395 43.2827 44.2473 43.2488C41.7217 42.2837 39.5854 40.5119 38.1699 38.2085C36.7543 35.9051 36.1387 33.1988 36.4185 30.5097C36.4399 30.4019 36.4823 30.2994 36.5433 30.208C36.6044 30.1166 36.6828 30.0382 36.7741 29.9771C36.8655 29.916 36.968 29.8735 37.0757 29.8521C37.1835 29.8306 37.2944 29.8306 37.4022 29.852C37.51 29.8734 37.6125 29.9158 37.7039 29.9768C37.7952 30.0378 37.8737 30.1163 37.9348 30.2076C37.9959 30.2989 38.0383 30.4014 38.0598 30.5092C38.0813 30.617 38.0813 30.7279 38.0599 30.8357C37.8662 33.1307 38.4203 35.4268 39.6393 37.381C40.8583 39.3351 42.6769 40.8424 44.8233 41.6777C45.0078 41.7454 45.1626 41.8759 45.2606 42.0463C45.3585 42.2167 45.3934 42.4161 45.359 42.6096C45.3247 42.8032 45.2233 42.9784 45.0727 43.1047C44.9221 43.231 44.7318 43.3002 44.5353 43.3003Z" fill="white"/>
<path d="M46.8926 44.1441C47.9676 44.3192 49.1763 43.9826 49.2285 43.4107C49.2807 42.8387 47.8052 42.9826 47.2558 42.8642C46.7064 42.7459 46.2527 42.3711 46.3178 42.0657C46.3829 41.7603 46.8483 41.8494 47.3467 41.9564C47.8452 42.0634 48.3381 41.5998 48.2529 41.2294C48.1677 40.859 47.1379 40.4812 45.6953 40.286C44.2526 40.0907 43.6383 41.104 43.2144 42.2792C43.0593 42.786 43.0748 43.3296 43.2584 43.8268C43.4421 44.3239 43.7838 44.7471 44.2312 45.0313C44.9706 45.5679 45.8626 45.8532 46.7762 45.8451C47.4193 45.8031 47.7278 45.4102 47.6549 45.0302C47.1803 45.0349 46.706 45.0063 46.2355 44.9448C46.861 45.0985 47.5156 45.0875 48.1355 44.9127C48.7364 44.5925 48.6053 44.2173 48.4587 44.053C47.9071 44.1869 47.3336 44.2045 46.7748 44.1048L46.8926 44.1441Z" fill="white"/>
<path d="M6.82147 7.72498C7.39327 7.72498 7.85681 7.26144 7.85681 6.68964C7.85681 6.11784 7.39327 5.6543 6.82147 5.6543C6.24967 5.6543 5.78613 6.11784 5.78613 6.68964C5.78613 7.26144 6.24967 7.72498 6.82147 7.72498Z" fill="white"/>
<path d="M9.39801 6.92459C9.32658 6.9245 9.25805 6.89636 9.20716 6.84623C9.15628 6.79611 9.12711 6.72801 9.12594 6.65659C9.11749 6.12466 8.92621 5.61186 8.58425 5.20433C8.56129 5.17702 8.54393 5.14546 8.53317 5.11145C8.5224 5.07743 8.51844 5.04163 8.52152 5.00609C8.52459 4.97054 8.53463 4.93595 8.55107 4.90429C8.56751 4.87263 8.59003 4.84452 8.61733 4.82155C8.64464 4.79859 8.6762 4.78124 8.71021 4.77047C8.74423 4.75971 8.78003 4.75575 8.81557 4.75882C8.85112 4.76189 8.88571 4.77194 8.91737 4.78838C8.94903 4.80482 8.97715 4.82733 9.00011 4.85464C9.42269 5.35795 9.65926 5.99132 9.67011 6.64842C9.67108 6.72055 9.64342 6.79012 9.59318 6.84188C9.54294 6.89365 9.47423 6.92339 9.40211 6.92458L9.39801 6.92459Z" fill="white"/>
<path d="M5.01432 5.12519C4.9603 5.1252 4.9075 5.10913 4.86265 5.07903C4.8178 5.04894 4.78292 5.00617 4.76246 4.95617C4.742 4.90618 4.73688 4.85123 4.74776 4.79832C4.75864 4.74542 4.78502 4.69694 4.82355 4.65908C5.10815 4.37944 5.44829 4.16266 5.82195 4.02277C6.19561 3.88287 6.59448 3.82297 6.99276 3.84695C7.06444 3.85162 7.13137 3.88449 7.17889 3.93837C7.22641 3.99225 7.25066 4.06275 7.24634 4.13446C7.24202 4.20618 7.20948 4.27326 7.15583 4.32104C7.10219 4.36883 7.03181 4.39343 6.96008 4.38946C6.63788 4.37087 6.31535 4.41978 6.01314 4.53303C5.71093 4.64629 5.4357 4.82141 5.20508 5.04717C5.15414 5.09712 5.08566 5.12513 5.01432 5.12519Z" fill="white"/>
<path d="M4.77061 8.52286C4.72863 8.5229 4.68722 8.51317 4.64965 8.49445C4.61207 8.47574 4.57936 8.44854 4.5541 8.41501C4.13059 7.85835 3.92673 7.16532 3.98136 6.46801C3.9874 6.39638 4.02153 6.33004 4.07631 6.28349C4.13109 6.23695 4.20207 6.21397 4.27373 6.21958C4.3454 6.22519 4.41193 6.25894 4.4588 6.31344C4.50567 6.36795 4.52906 6.43879 4.52387 6.51049C4.47954 7.0749 4.64443 7.63589 4.98712 8.08654C5.01764 8.12689 5.0363 8.17494 5.04102 8.2253C5.04573 8.27567 5.03632 8.32635 5.01384 8.37166C4.99135 8.41698 4.95668 8.45512 4.91372 8.48183C4.87075 8.50853 4.8212 8.52275 4.77061 8.52286Z" fill="white"/>
<path d="M8.44016 11.9662C8.38268 11.9662 8.32668 11.9479 8.28022 11.9141C8.23375 11.8802 8.19921 11.8325 8.18157 11.7778L6.56303 6.77353C6.54082 6.70494 6.54676 6.63035 6.57955 6.56615C6.61234 6.50195 6.66929 6.4534 6.73787 6.43119C6.80646 6.40898 6.88105 6.41492 6.94525 6.44771C7.00945 6.4805 7.058 6.53745 7.08021 6.60604L8.69875 11.6103C8.71184 11.6511 8.71513 11.6944 8.70835 11.7368C8.70157 11.7791 8.6849 11.8192 8.65971 11.8538C8.63452 11.8885 8.60151 11.9167 8.56336 11.9363C8.52522 11.9558 8.48301 11.966 8.44016 11.9662Z" fill="white"/>
<path d="M21.1264 42.1483L6.46973 41.5176C6.6496 42.4555 7.10907 43.3171 7.78776 43.9891C8.46644 44.6611 9.33257 45.1119 10.2723 45.2824C13.8739 45.8828 17.5222 46.1584 21.1732 46.106C25.0659 46.1331 28.9549 45.8578 32.805 45.2824C33.7448 45.1119 34.6109 44.6611 35.2896 43.9891C35.9682 43.3171 36.4277 42.4555 36.6076 41.5176L21.1264 42.1483Z" fill="white"/>
<path d="M39.5338 29.8629C38.9873 27.353 35.3115 27.3027 35.3115 27.3027H7.03411C7.03411 27.3027 3.35829 27.353 2.8117 29.8629C2.26531 32.3728 2.06616 38.9488 5.39453 41.8234C7.61236 43.7388 16.5815 44.0705 21.1728 44.0261C23.5578 44.0492 34.7085 43.7601 36.9511 41.8234C40.2794 38.9488 40.0803 32.3728 39.5338 29.8629Z" fill="white"/>
<path d="M36.4922 11.266C34.1246 10.1466 31.6058 9.38008 29.016 8.99091C27.6486 8.75458 26.3085 8.59052 25.0903 8.47991C22.4696 8.34351 19.8434 8.34526 17.2228 8.48516C15.3428 8.65226 13.4748 8.93345 11.6289 9.32716C9.21304 9.78183 6.8946 10.6531 4.77717 11.9019C2.92445 13.1063 1.69777 14.6953 1.68178 16.7841C1.59571 19.1393 1.72739 21.4973 2.07515 23.8283C2.56947 26.398 3.61915 27.7554 5.71882 28.1857C9.15797 28.8905 17.618 28.9091 21.0504 28.9096H21.3199C24.7522 28.9091 33.2122 28.8905 36.6514 28.1857C38.8737 27.7304 39.9198 26.2363 40.3762 23.3658C40.6512 21.1834 40.7557 18.9828 40.6885 16.7841C40.6695 14.3048 38.9449 12.5297 36.4922 11.266ZM39.5476 22.2087C39.4131 22.89 39.0518 23.5056 38.5227 23.9552C37.9935 24.4048 37.3276 24.6619 36.6336 24.6846C35.2654 24.8802 32.898 24.9806 30.5317 25.032C29.4329 25.0559 27.2997 25.0688 25.121 25.0721C22.6115 25.0759 20.0418 25.067 18.9235 25.0475C16.6211 25.0425 14.3204 24.9214 12.0302 24.6846C11.4902 24.6625 10.9654 24.4993 10.5082 24.2112C10.0509 23.9232 9.67709 23.5204 9.42396 23.0429C8.87994 21.5454 8.67342 19.9462 8.81917 18.3596C8.83705 16.7313 10.7566 15.6504 13.2874 14.9398C15.0253 14.481 16.7968 14.1603 18.5853 13.9808C19.6296 13.8652 21.9253 13.7012 24.0931 13.6952C26.1436 13.6888 28.193 13.7899 30.2328 13.9981C32.1816 14.1924 34.108 14.5689 35.9866 15.1224C38.2096 15.8316 39.8283 16.865 39.8447 18.3597C39.9089 19.6501 39.8091 20.9435 39.5476 22.2087Z" fill="white"/>
<path d="M25.3036 23.3015C24.8512 23.3522 24.3932 23.3008 23.9634 23.1511C23.5335 23.0013 23.1427 22.7571 22.8198 22.4362C22.7846 22.3941 22.7581 22.3454 22.7417 22.293C22.7253 22.2405 22.7194 22.1854 22.7243 22.1307C22.7293 22.076 22.7449 22.0228 22.7704 21.9742C22.7959 21.9255 22.8307 21.8823 22.8729 21.8471C22.9151 21.812 22.9638 21.7854 23.0162 21.769C23.0686 21.7527 23.1237 21.7468 23.1784 21.7517C23.2331 21.7566 23.2863 21.7723 23.335 21.7978C23.3836 21.8233 23.4268 21.8581 23.462 21.9002C23.6381 22.111 24.1115 22.4648 25.3036 22.4648C25.6013 22.5021 25.9035 22.4763 26.1905 22.3892C26.4776 22.302 26.7431 22.1555 26.9699 21.9591C27.0442 21.8771 27.1479 21.8278 27.2583 21.8221C27.3688 21.8164 27.4771 21.8547 27.5594 21.9286C27.6417 22.0025 27.6914 22.106 27.6976 22.2164C27.7038 22.3269 27.666 22.4353 27.5925 22.5179C27.2894 22.805 26.9282 23.0235 26.5333 23.1587C26.1384 23.2939 25.719 23.3426 25.3036 23.3015Z" fill="white"/>
<path d="M36.2272 49.1118L36.2247 49.1115C32.6293 48.516 29.2419 47.0241 26.3754 44.7736C26.2917 44.7021 26.2229 44.6148 26.173 44.5167C26.1231 44.4186 26.093 44.3116 26.0845 44.2019C26.076 44.0921 26.0893 43.9818 26.1235 43.8772C26.1577 43.7726 26.2123 43.6758 26.284 43.5923C26.3557 43.5088 26.4432 43.4403 26.5414 43.3906C26.6397 43.341 26.7467 43.3113 26.8565 43.3031C26.9663 43.2949 27.0765 43.3085 27.1811 43.343C27.2856 43.3775 27.3822 43.4324 27.4655 43.5043C30.0975 45.5376 33.188 46.8944 36.4662 47.4557C36.6851 47.4882 36.8823 47.6061 37.0144 47.7836C37.1466 47.9611 37.2031 48.1837 37.1715 48.4028C37.1399 48.6218 37.0227 48.8194 36.8458 48.9523C36.6688 49.0852 36.4463 49.1426 36.2272 49.1118Z" fill="white"/>
<path d="M35.731 48.9756C35.6628 49.2763 35.6986 49.5913 35.8326 49.869C35.9665 50.1467 36.1907 50.3708 36.4685 50.5046C37.4873 51.1125 38.5112 51.5292 38.8187 51.3117C39.1263 51.0942 39.48 50.207 40.3521 48.3151L42.0018 44.7365C42.1969 44.3133 41.3114 43.6863 40.2766 43.7201C38.7719 43.7692 37.9106 45.3379 37.5454 46.0401C37.1803 46.7424 36.5689 45.8801 36.1616 46.3142C36.0731 46.3954 36.0018 46.4935 35.9518 46.6027C35.9018 46.7118 35.8741 46.8298 35.8703 46.9498C35.9024 47.1639 36.1354 47.2692 36.3636 47.3747C36.7551 47.5557 36.4214 49.0182 35.731 48.9756Z" fill="white"/>
<path d="M41.7437 46.5846C42.2367 45.4498 42.2311 44.3721 41.7077 44.1159C41.1844 43.8597 40.3298 44.5163 39.7359 45.6017L39.7339 45.6056C39.6961 45.6748 39.6594 45.7456 39.6238 45.8179C39.5883 45.8904 39.5549 45.9628 39.5237 46.035L37.844 49.4662C37.6426 49.7642 37.5629 50.128 37.6211 50.483C37.6793 50.838 37.8711 51.1573 38.1572 51.3754C38.7131 51.6475 39.4741 51.2339 39.8571 50.4516L41.7488 46.5871L41.7437 46.5846Z" fill="white"/>
<path d="M2.93126 45.2239C2.79918 45.2241 2.66893 45.193 2.55119 45.1332C2.43345 45.0733 2.33158 44.9864 2.25394 44.8795C0.692626 42.6722 -0.0963738 40.0112 0.00940398 37.3095C0.115182 34.6078 1.10982 32.0166 2.83894 29.9381C2.9962 29.7821 3.2089 29.6948 3.43043 29.6953C3.65196 29.6959 3.86423 29.7842 4.02072 29.941C4.1772 30.0978 4.26512 30.3103 4.26521 30.5318C4.2653 30.7533 4.17754 30.9659 4.02118 31.1228C2.58303 32.9219 1.76556 35.138 1.6909 37.4401C1.61624 39.7421 2.28839 42.0065 3.60694 43.895C3.69772 44.0198 3.75223 44.1672 3.76446 44.321C3.77668 44.4748 3.74615 44.6289 3.67622 44.7665C3.6063 44.904 3.49971 45.0195 3.36824 45.1002C3.23677 45.181 3.08554 45.2238 2.93126 45.2239Z" fill="white"/>
<path d="M3.95317 47.0945C4.74888 47.8383 5.94045 48.2313 6.30208 47.7851C6.66371 47.3389 5.35777 46.6374 4.96708 46.2333C4.57639 45.8293 4.40808 45.2654 4.63216 45.0479C4.85624 44.8303 5.19326 45.1634 5.54785 45.5297C5.62481 45.6104 5.71893 45.6728 5.82325 45.7123C5.92758 45.7517 6.03943 45.7672 6.15056 45.7576C6.26168 45.7481 6.36923 45.7136 6.46526 45.6569C6.56129 45.6002 6.64333 45.5226 6.70533 45.4298C6.84067 45.0747 6.19533 44.1878 5.10533 43.2227C4.01533 42.2577 2.94108 42.7577 1.93489 43.4982C1.524 43.833 1.23429 44.2933 1.11023 44.8086C0.986174 45.3238 1.03462 45.8656 1.24813 46.3506C1.56379 47.208 2.14623 47.9414 2.90978 48.4431C3.46743 48.7661 3.94243 48.6113 4.09332 48.255C3.69644 47.9948 3.31825 47.7072 2.96152 47.3942C2.96152 47.3942 3.88066 48.3565 4.55806 48.4248C5.23546 48.4932 5.33536 48.1085 5.30506 47.8904C4.77221 47.6947 4.28592 47.3902 3.87712 46.9963L3.95317 47.0945Z" fill="white"/>
<path d="M16.2531 18.8496C16.1975 18.8496 16.1412 18.8484 16.084 18.8459C15.3135 18.8063 14.5712 18.5436 13.9474 18.0898C13.9028 18.0577 13.865 18.0172 13.8361 17.9705C13.8072 17.9238 13.7877 17.8718 13.7789 17.8176C13.7701 17.7634 13.772 17.708 13.7846 17.6545C13.7971 17.601 13.8201 17.5506 13.8522 17.506C13.8843 17.4614 13.9248 17.4236 13.9715 17.3947C14.0182 17.3658 14.0702 17.3463 14.1244 17.3375C14.1786 17.3286 14.234 17.3306 14.2875 17.3431C14.3409 17.3557 14.3914 17.3787 14.436 17.4108C14.928 17.7695 15.5135 17.9777 16.1215 18.0101C16.8213 18.031 17.5085 17.8204 18.0763 17.4108C18.1663 17.346 18.2784 17.3196 18.3879 17.3375C18.4974 17.3553 18.5953 17.416 18.6601 17.506C18.7248 17.596 18.7512 17.7081 18.7334 17.8176C18.7155 17.9271 18.6549 18.025 18.5648 18.0898C17.8914 18.5761 17.0837 18.8415 16.2531 18.8496Z" fill="white"/>
<path d="M32.8634 18.8496C32.8079 18.8496 32.7515 18.8484 32.6943 18.846C31.9238 18.8067 31.1814 18.5439 30.5578 18.0898C30.5132 18.0577 30.4753 18.0172 30.4464 17.9705C30.4175 17.9238 30.3981 17.8718 30.3892 17.8176C30.3804 17.7634 30.3823 17.708 30.3949 17.6545C30.4075 17.6011 30.4305 17.5506 30.4625 17.506C30.4946 17.4614 30.5352 17.4236 30.5819 17.3947C30.6286 17.3658 30.6805 17.3463 30.7347 17.3375C30.7889 17.3286 30.8444 17.3306 30.8978 17.3431C30.9513 17.3557 31.0018 17.3787 31.0463 17.4108C31.5382 17.7697 32.1238 17.978 32.7319 18.0101C33.4316 18.0302 34.1184 17.8196 34.6866 17.4108C34.7766 17.346 34.8887 17.3196 34.9982 17.3375C35.1077 17.3553 35.2056 17.416 35.2704 17.506C35.3352 17.596 35.3616 17.7081 35.3437 17.8176C35.3259 17.9271 35.2652 18.025 35.1752 18.0898C34.5017 18.5761 33.694 18.8415 32.8634 18.8496Z" fill="white"/>
<path d="M22.2451 51.7855L22.2423 51.7849C21.9369 51.7168 14.7201 50.0519 11.2073 44.8622C11.1457 44.7712 11.1026 44.669 11.0806 44.5614C11.0585 44.4538 11.0578 44.3429 11.0786 44.235C11.0993 44.1271 11.1412 44.0244 11.2016 43.9327C11.2621 43.841 11.3401 43.7621 11.431 43.7005C11.522 43.6389 11.6242 43.5958 11.7318 43.5737C11.8394 43.5516 11.9504 43.551 12.0582 43.5717C12.1661 43.5925 12.2688 43.6343 12.3606 43.6948C12.4523 43.7553 12.5312 43.8332 12.5928 43.9242C15.7288 48.5569 22.5398 50.1366 22.6083 50.1521C22.8246 50.2006 23.0129 50.3329 23.1317 50.52C23.2505 50.7071 23.2902 50.9337 23.2421 51.1501C23.194 51.3665 23.062 51.5549 22.8751 51.6741C22.6881 51.7932 22.4616 51.8333 22.2451 51.7855Z" fill="white"/>
<path d="M21.7614 51.6108C21.6708 51.9055 21.6827 52.2223 21.7953 52.5093C21.908 52.7963 22.1146 53.0367 22.3815 53.1911C23.3515 53.874 24.3412 54.3667 24.6643 54.1731C24.9873 53.9794 25.4069 53.1214 26.4192 51.3006L28.334 47.8566C28.5604 47.4492 27.7247 46.7572 26.6902 46.7129C25.1862 46.6485 24.2091 48.1478 23.792 48.8205C23.3749 49.4932 22.8303 48.5874 22.3914 48.9895C22.2971 49.0638 22.2186 49.1562 22.1605 49.2613C22.1024 49.3664 22.0658 49.482 22.053 49.6014C22.0689 49.8173 22.2933 49.9398 22.5129 50.0622C22.8897 50.2721 22.4466 51.7052 21.7614 51.6108Z" fill="white"/>
<path d="M27.9365 49.6809C28.5136 48.5865 28.5892 47.5114 28.0866 47.2165C27.5841 46.9216 26.6824 47.5119 26.0084 48.5495L26.0061 48.5532C25.9633 48.6194 25.9213 48.6872 25.8804 48.7566C25.8395 48.8262 25.8008 48.8958 25.7642 48.9655L23.8306 52.2603C23.6074 52.5423 23.5004 52.8991 23.5317 53.2575C23.563 53.6158 23.7302 53.9486 23.999 54.1877C24.5328 54.5009 25.3228 54.1459 25.7637 53.3947L27.9413 49.6838L27.9365 49.6809Z" fill="white"/>
<path d="M80.0016 6.18134C77.2456 3.91357 73.6107 4.55378 72.9544 4.68055C72.619 4.26264 68.6418 -0.526234 62.5794 0.0476755C60.0071 0.325461 57.6006 1.45197 55.7396 3.24939C52.6075 2.11839 44.3424 2.6404 43.2113 10.5576C42.0803 18.4747 49.9105 20.8238 49.9105 20.8238C49.1275 26.131 44.6033 29.35 44.6033 29.35C46.8182 29.2542 48.9855 28.6762 50.954 27.6565C52.9225 26.6367 54.6447 25.1997 56.0006 23.4457C59.9753 26.2664 64.8292 26.9121 68.626 24.9738C70.45 24.0122 71.9598 22.5474 72.9761 20.7534C73.5725 20.8619 77.5225 21.5179 80.3278 18.9706C83.8676 15.7564 83.6588 9.19061 80.0016 6.18134ZM56.5472 16.7831H50.9432C50.8255 16.7922 50.7071 16.7766 50.5957 16.7372C50.4843 16.6978 50.3824 16.6355 50.2966 16.5543C50.2241 16.4749 50.1702 16.3804 50.1385 16.2776C50.1069 16.1748 50.0984 16.0663 50.1136 15.9599C50.1489 15.6829 50.2595 15.4209 50.4335 15.2025L55.0317 8.97144H50.8125C50.3162 8.97144 50.0679 8.73627 50.0678 8.26593C50.0678 7.80432 50.316 7.57353 50.8125 7.57355H56.2205C56.3383 7.56454 56.4566 7.58023 56.568 7.61962C56.6794 7.65901 56.7813 7.72124 56.8672 7.80232C56.9393 7.88085 56.9935 7.97404 57.0262 8.0755C57.0589 8.17696 57.0693 8.28429 57.0567 8.39015C57.0224 8.67063 56.9091 8.93558 56.7299 9.15405L52.1321 15.3851H56.5473C57.0436 15.3851 57.2917 15.616 57.2916 16.0776C57.2916 16.5478 57.0435 16.783 56.5472 16.7831ZM62.4912 16.7831H58.4023C58.3064 16.79 58.2102 16.774 58.1217 16.7365C58.0331 16.699 57.9547 16.641 57.8929 16.5674C57.7786 16.4212 57.7269 16.2357 57.7491 16.0515C57.774 15.8347 57.8705 15.6324 58.0232 15.4766L61.0932 11.6231H58.3239C58.2422 11.6247 58.1611 11.61 58.0852 11.5799C58.0092 11.5498 57.9401 11.5048 57.8818 11.4476C57.8235 11.3905 57.7771 11.3222 57.7455 11.2469C57.7139 11.1716 57.6976 11.0908 57.6976 11.0091C57.6976 10.9274 57.7139 10.8466 57.7455 10.7713C57.7771 10.696 57.8235 10.6278 57.8818 10.5706C57.9401 10.5134 58.0092 10.4685 58.0852 10.4383C58.1611 10.4082 58.2422 10.3935 58.3239 10.3951H62.1905C62.2967 10.3865 62.4035 10.4006 62.5038 10.4367C62.6041 10.4728 62.6955 10.5299 62.7718 10.6043C62.8337 10.6716 62.8808 10.7511 62.9101 10.8377C62.9394 10.9243 62.9501 11.0161 62.9417 11.1072C62.9201 11.3217 62.8256 11.5223 62.6738 11.6754L59.5649 15.555H62.4912C62.5729 15.5532 62.6542 15.5678 62.7303 15.5978C62.8064 15.6279 62.8757 15.6728 62.9342 15.73C62.9926 15.7872 63.0391 15.8555 63.0708 15.9309C63.1025 16.0063 63.1189 16.0872 63.1189 16.169C63.1189 16.2508 63.1025 16.3318 63.0708 16.4072C63.0391 16.4826 62.9926 16.5509 62.9342 16.6081C62.8757 16.6653 62.8064 16.7102 62.7303 16.7402C62.6542 16.7703 62.5729 16.7849 62.4912 16.7831ZM68.683 16.7831H64.5942C64.4983 16.79 64.4021 16.774 64.3135 16.7365C64.225 16.699 64.1465 16.6411 64.0847 16.5674C63.9704 16.4212 63.9187 16.2357 63.941 16.0515C63.9659 15.8347 64.0623 15.6324 64.2151 15.4766L67.2851 11.6231H64.5158C64.4341 11.6247 64.3529 11.61 64.277 11.5799C64.2011 11.5498 64.132 11.5048 64.0737 11.4476C64.0154 11.3905 63.969 11.3222 63.9374 11.2469C63.9058 11.1716 63.8895 11.0908 63.8895 11.0091C63.8895 10.9274 63.9058 10.8466 63.9374 10.7713C63.969 10.696 64.0154 10.6278 64.0737 10.5706C64.132 10.5134 64.2011 10.4685 64.277 10.4383C64.3529 10.4082 64.4341 10.3935 64.5158 10.3951H68.3823C68.4885 10.3864 68.5954 10.4006 68.6956 10.4367C68.7959 10.4728 68.8873 10.5299 68.9636 10.6043C69.0255 10.6715 69.0727 10.7511 69.102 10.8377C69.1312 10.9243 69.142 11.0161 69.1336 11.1072C69.112 11.3217 69.0174 11.5223 68.8656 11.6754L65.7568 15.555H68.683C68.7648 15.5532 68.8461 15.5678 68.9222 15.5978C68.9982 15.6279 69.0675 15.6728 69.126 15.73C69.1845 15.7872 69.231 15.8555 69.2627 15.9309C69.2944 16.0063 69.3107 16.0872 69.3107 16.169C69.3107 16.2508 69.2944 16.3318 69.2627 16.4072C69.231 16.4826 69.1845 16.5509 69.126 16.6081C69.0675 16.6653 68.9982 16.7102 68.9222 16.7402C68.8461 16.7703 68.7648 16.7849 68.683 16.7831ZM71.8898 16.5739C71.7976 16.6678 71.6863 16.7408 71.5635 16.7882C71.4407 16.8355 71.3092 16.8561 71.1778 16.8485C71.0466 16.8544 70.9156 16.8331 70.793 16.7859C70.6705 16.7386 70.5591 16.6664 70.4658 16.5739C70.3763 16.4803 70.3064 16.3697 70.2604 16.2486C70.2145 16.1274 70.1933 15.9983 70.1983 15.8688C70.1937 15.7423 70.2152 15.6162 70.2612 15.4982C70.3072 15.3803 70.3768 15.273 70.4658 15.1829C70.5601 15.0922 70.6718 15.0217 70.7942 14.9756C70.9167 14.9295 71.0472 14.9089 71.1778 14.9149C71.3087 14.9073 71.4396 14.9272 71.5623 14.9733C71.6849 15.0195 71.7965 15.0909 71.8898 15.1829C71.9753 15.2749 72.0418 15.3828 72.0854 15.5005C72.1291 15.6182 72.1491 15.7434 72.1444 15.8688C72.1548 16.1281 72.0634 16.3811 71.8898 16.5739ZM75.1293 16.5739C75.0371 16.6678 74.9258 16.7408 74.803 16.7882C74.6802 16.8355 74.5487 16.8561 74.4173 16.8485C74.2861 16.8544 74.1551 16.8331 74.0325 16.7859C73.91 16.7386 73.7986 16.6664 73.7053 16.5739C73.6158 16.4803 73.5459 16.3697 73.5 16.2486C73.454 16.1274 73.4328 15.9983 73.4378 15.8688C73.4333 15.7423 73.4547 15.6162 73.5007 15.4982C73.5467 15.3803 73.6163 15.273 73.7053 15.1829C73.7996 15.0922 73.9113 15.0217 74.0337 14.9756C74.1562 14.9295 74.2867 14.9089 74.4173 14.9149C74.5482 14.9073 74.6791 14.9272 74.8018 14.9733C74.9244 15.0195 75.036 15.0909 75.1293 15.1829C75.2148 15.2749 75.2813 15.3828 75.325 15.5005C75.3686 15.6182 75.3886 15.7434 75.3839 15.8688C75.3943 16.1281 75.303 16.3811 75.1293 16.5739ZM78.3689 16.5739C78.2766 16.6678 78.1653 16.7408 78.0425 16.7882C77.9197 16.8355 77.7882 16.8561 77.6568 16.8485C77.5256 16.8544 77.3946 16.8331 77.272 16.7859C77.1494 16.7386 77.038 16.6664 76.9448 16.5739C76.8552 16.4803 76.7854 16.3697 76.7394 16.2485C76.6935 16.1274 76.6723 15.9983 76.6772 15.8688C76.6727 15.7423 76.6942 15.6162 76.7402 15.4982C76.7862 15.3803 76.8558 15.273 76.9448 15.1829C77.039 15.0922 77.1508 15.0217 77.2732 14.9756C77.3956 14.9295 77.5261 14.9089 77.6568 14.9149C77.7876 14.9073 77.9186 14.9272 78.0413 14.9733C78.164 15.0195 78.2756 15.0909 78.3689 15.1829C78.4543 15.2749 78.5208 15.3828 78.5645 15.5005C78.6081 15.6182 78.6281 15.7434 78.6234 15.8688C78.6338 16.1281 78.5425 16.3811 78.3689 16.5739Z" fill="white"/>
</svg>
